# Blender v2.74 (sub 0) OBJ File: 'battlemap_panorama.blend'
# www.blender.org
mtllib battlemap_panorama.mtl
o Cylinder
v 0.000000 -2.098328 -4.847419
v 0.000000 11.231645 -4.847419
v 0.921156 -2.098328 -4.832255
v 0.921156 11.231645 -4.832255
v 1.833440 -2.098328 -4.786910
v 1.833440 11.231645 -4.786910
v 2.728067 -2.098328 -4.711819
v 2.728067 11.231645 -4.711819
v 3.596422 -2.098328 -4.607706
v 3.596422 11.231645 -4.607706
v 4.430141 -2.098328 -4.475574
v 4.430141 11.231645 -4.475574
v 5.221195 -2.098328 -4.316696
v 5.221195 11.231645 -4.316696
v 5.989157 -2.098328 -4.116878
v 5.989157 11.231645 -4.116878
v 6.766709 -2.098328 -3.843165
v 6.766709 11.231645 -3.843165
v 7.551597 -2.098328 -3.501297
v 7.551597 11.231645 -3.501297
v 8.332010 -2.098328 -3.104138
v 8.332010 11.231645 -3.104138
v 9.087002 -2.098328 -2.669973
v 9.087002 11.231645 -2.669973
v 9.787631 -2.098328 -2.220356
v 9.787631 11.231645 -2.220356
v 10.398864 -2.098328 -1.776700
v 10.398864 11.231645 -1.776700
v 10.882088 -2.098328 -1.356995
v 10.882088 11.231645 -1.356995
v 11.198153 -2.098328 -0.974312
v 11.198153 11.231645 -0.974312
v 11.310672 -2.098328 -0.638423
v 11.310672 11.231645 -0.638423
v -11.310672 -2.098328 -0.638422
v -11.310672 11.231645 -0.638422
v -11.198153 -2.098328 -0.974311
v -11.198153 11.231645 -0.974311
v -10.882091 -2.098328 -1.356992
v -10.882091 11.231645 -1.356992
v -10.398869 -2.098328 -1.776696
v -10.398869 11.231645 -1.776696
v -9.787640 -2.098328 -2.220351
v -9.787640 11.231645 -2.220351
v -9.087011 -2.098328 -2.669967
v -9.087011 11.231645 -2.669967
v -8.332023 -2.098328 -3.104131
v -8.332023 11.231645 -3.104131
v -7.551611 -2.098328 -3.501290
v -7.551611 11.231645 -3.501290
v -6.766726 -2.098328 -3.843158
v -6.766726 11.231645 -3.843158
v -5.989174 -2.098328 -4.116872
v -5.989174 11.231645 -4.116872
v -5.221214 -2.098328 -4.316691
v -5.221214 11.231645 -4.316691
v -4.430163 -2.098328 -4.475571
v -4.430163 11.231645 -4.475571
v -3.596446 -2.098328 -4.607703
v -3.596446 11.231645 -4.607703
v -2.728095 -2.098328 -4.711816
v -2.728095 11.231645 -4.711816
v -1.833470 -2.098328 -4.786908
v -1.833470 11.231645 -4.786908
v -0.921188 -2.098328 -4.832254
v -0.921188 11.231645 -4.832254
vt 0.500000 0.000098
vt 0.525128 0.000098
vt 0.525128 0.952669
vt 0.500000 0.952669
vt 0.550256 0.000098
vt 0.550256 0.952669
vt 0.575384 0.000098
vt 0.575383 0.952669
vt 0.600513 0.000098
vt 0.600511 0.952670
vt 0.625641 0.000098
vt 0.625639 0.952670
vt 0.650769 0.000098
vt 0.650767 0.952670
vt 0.677260 0.000098
vt 0.677258 0.952670
vt 0.707987 0.000099
vt 0.707984 0.952671
vt 0.743058 0.000099
vt 0.743056 0.952671
vt 0.781723 0.000100
vt 0.781721 0.952671
vt 0.822581 0.000100
vt 0.822578 0.952672
vt 0.863824 0.000100
vt 0.863821 0.952672
vt 0.903556 0.000101
vt 0.903553 0.952673
vt 0.940134 0.000101
vt 0.940131 0.952673
vt 0.972420 0.000102
vt 0.972417 0.952674
vt 0.999902 0.000102
vt 0.999900 0.952674
vt 0.000098 0.000102
vt 0.027580 0.000102
vt 0.027582 0.952674
vt 0.000099 0.952674
vt 0.059866 0.000102
vt 0.059868 0.952673
vt 0.096444 0.000101
vt 0.096446 0.952673
vt 0.136176 0.000101
vt 0.136179 0.952673
vt 0.177418 0.000100
vt 0.177421 0.952672
vt 0.218276 0.000100
vt 0.218279 0.952672
vt 0.256941 0.000100
vt 0.256944 0.952671
vt 0.292012 0.000099
vt 0.292015 0.952671
vt 0.322739 0.000099
vt 0.322742 0.952670
vt 0.349230 0.000099
vt 0.349233 0.952670
vt 0.374359 0.000098
vt 0.374361 0.952670
vt 0.399487 0.000098
vt 0.399488 0.952670
vt 0.424615 0.000098
vt 0.424616 0.952670
vt 0.449743 0.000098
vt 0.449744 0.952669
vt 0.474871 0.000098
vt 0.474871 0.952669
vn 0.000000 0.000000 1.000000
vn -0.033100 0.000000 0.999500
vn -0.066700 0.000000 0.997800
vn -0.101400 0.000000 0.994800
vn -0.137800 0.000000 0.990400
vn -0.176700 0.000000 0.984300
vn -0.224400 0.000000 0.974500
vn -0.292200 0.000000 0.956400
vn -0.365900 0.000000 0.930600
vn -0.426600 0.000000 0.904400
vn -0.476200 0.000000 0.879300
vn -0.519400 0.000000 0.854500
vn -0.564000 0.000000 0.825800
vn -0.622200 0.000000 0.782900
vn -0.715800 0.000000 0.698300
vn -0.874300 0.000000 0.485400
vn -0.948200 0.000000 0.317600
vn 0.948200 0.000000 0.317600
vn 0.874300 0.000000 0.485400
vn 0.715800 0.000000 0.698300
vn 0.622200 0.000000 0.782900
vn 0.564000 0.000000 0.825800
vn 0.519400 0.000000 0.854500
vn 0.476200 0.000000 0.879300
vn 0.426600 0.000000 0.904400
vn 0.365900 0.000000 0.930600
vn 0.292200 0.000000 0.956400
vn 0.224400 0.000000 0.974500
vn 0.176700 0.000000 0.984300
vn 0.137800 0.000000 0.990400
vn 0.101400 0.000000 0.994800
vn 0.066700 0.000000 0.997800
vn 0.033100 0.000000 0.999500
usemtl Material.002
s 1
f 1/1/1 3/2/2 4/3/2 2/4/1
f 3/2/2 5/5/3 6/6/3 4/3/2
f 5/5/3 7/7/4 8/8/4 6/6/3
f 7/7/4 9/9/5 10/10/5 8/8/4
f 9/9/5 11/11/6 12/12/6 10/10/5
f 11/11/6 13/13/7 14/14/7 12/12/6
f 13/13/7 15/15/8 16/16/8 14/14/7
f 15/15/8 17/17/9 18/18/9 16/16/8
f 17/17/9 19/19/10 20/20/10 18/18/9
f 19/19/10 21/21/11 22/22/11 20/20/10
f 21/21/11 23/23/12 24/24/12 22/22/11
f 23/23/12 25/25/13 26/26/13 24/24/12
f 25/25/13 27/27/14 28/28/14 26/26/13
f 27/27/14 29/29/15 30/30/15 28/28/14
f 29/29/15 31/31/16 32/32/16 30/30/15
f 31/31/16 33/33/17 34/34/17 32/32/16
f 35/35/18 37/36/19 38/37/19 36/38/18
f 37/36/19 39/39/20 40/40/20 38/37/19
f 39/39/20 41/41/21 42/42/21 40/40/20
f 41/41/21 43/43/22 44/44/22 42/42/21
f 43/43/22 45/45/23 46/46/23 44/44/22
f 45/45/23 47/47/24 48/48/24 46/46/23
f 47/47/24 49/49/25 50/50/25 48/48/24
f 49/49/25 51/51/26 52/52/26 50/50/25
f 51/51/26 53/53/27 54/54/27 52/52/26
f 53/53/27 55/55/28 56/56/28 54/54/27
f 55/55/28 57/57/29 58/58/29 56/56/28
f 57/57/29 59/59/30 60/60/30 58/58/29
f 59/59/30 61/61/31 62/62/31 60/60/30
f 61/61/31 63/63/32 64/64/32 62/62/31
f 65/65/33 1/1/1 2/4/1 66/66/33
f 63/63/32 65/65/33 66/66/33 64/64/32
