# Blender v2.74 (sub 0) OBJ File: 'schiefer.blend'
# www.blender.org
mtllib 03.mtl
o Group4
v 2.524563 1.190752 0.966409
v 2.577356 1.190753 0.109265
v 0.314259 1.190753 0.016101
v 0.532194 1.190752 0.971270
v 2.638619 1.190753 -0.785612
v 0.125947 1.190753 -0.972190
v -2.348216 1.190753 -1.203801
v -1.913100 1.190753 -0.108229
v -1.480217 1.190752 1.011868
v -2.447353 0.769304 -1.256001
v -2.087434 0.769304 -2.014491
v -0.768276 0.769304 -2.551428
v -0.604319 0.769304 -2.175971
v -1.666431 0.769304 -2.769125
v -0.891542 0.769304 -2.939939
v -0.115734 0.769304 -3.112120
v 0.527229 0.769304 -3.094403
v 1.186232 0.769304 -3.065419
v -0.843477 0.773766 2.854793
v -0.830666 0.993722 2.817866
v -1.550991 0.974654 2.170932
v -1.546830 0.765786 2.174665
v -0.831225 1.182055 2.782730
v -1.506559 1.179623 2.118082
v -2.244576 1.165256 1.480488
v -2.213357 0.977581 1.441985
v -2.238900 0.771104 1.446154
v 2.059502 0.776712 2.737878
v 2.036725 0.980023 2.727374
v 0.604885 0.978718 2.797072
v 0.607795 0.774858 2.821744
v 1.980061 1.183344 2.710969
v 0.636258 1.183099 2.709668
v 3.392008 0.776713 1.338264
v 3.374005 0.980028 1.329073
v 2.739555 0.980028 2.038429
v 2.742056 0.776712 2.066438
v 3.319979 1.183344 1.316853
v 2.685856 1.183344 2.021826
v 2.626979 0.776668 -2.224880
v 2.591523 0.977299 -2.197520
v 3.081051 0.980015 -1.622860
v 3.107435 0.776695 -1.642253
v 2.537891 1.182111 -2.157598
v 3.050998 1.170131 -1.612934
v 3.535668 1.180250 -1.049582
v 3.572745 0.976028 -1.060990
v 3.565430 0.776712 -1.042983
v -0.211649 0.776713 -3.860124
v -0.183058 0.979810 -3.852597
v 0.762248 0.980768 -3.861416
v 0.759822 0.776716 -3.883178
v -0.164280 1.183188 -3.805372
v 0.772440 1.183345 -3.827055
v 1.665627 1.192762 -3.783301
v 1.710070 0.988591 -3.850730
v 1.739998 0.776741 -3.897485
v -2.220381 0.776713 -3.399455
v -2.207085 0.980029 -3.379173
v -1.176898 0.977899 -3.650192
v -1.225202 0.776713 -3.646032
v -2.147678 1.183345 -3.362088
v -1.171968 1.183017 -3.591219
v -3.360027 0.775966 -1.265940
v -3.306354 0.975553 -1.284485
v -2.797498 0.980029 -2.345592
v -2.820643 0.776713 -2.351794
v -3.288079 1.181738 -1.253505
v -2.749411 1.183345 -2.326264
v -2.790297 0.986225 0.095626
v -2.794160 0.777043 0.070176
v -2.743171 1.184274 0.080687
v 3.504369 0.979118 0.120022
v 3.437147 1.183220 0.142738
v 3.521722 0.777769 0.116975
v 2.150021 0.979725 -3.027748
v 2.175442 0.776402 -3.055661
v 2.109727 1.184064 -2.985484
v -0.664686 1.190549 2.377794
v -1.245878 1.190752 1.788965
v -0.519639 1.190752 2.003101
v -0.953416 1.190752 1.484487
v -1.809139 1.190752 1.163622
v 1.923853 1.190752 2.219676
v 0.582379 1.190752 2.367090
v 1.635880 1.190752 1.948794
v 0.572470 1.190752 1.964006
v 2.979663 1.190752 1.119241
v 2.419504 1.190752 1.740290
v 2.163228 1.190752 1.395671
v 3.126230 1.190753 -0.907108
v 3.049405 1.190753 0.126078
v 2.227073 1.190753 -1.943960
v 2.696523 1.190753 -1.442293
v 1.860388 1.190753 -1.754489
v 2.249790 1.190753 -1.267801
v 1.448522 1.190753 -3.413451
v 1.844227 1.190753 -2.688330
v 1.200240 1.190753 -3.005626
v 1.516898 1.190753 -2.383806
v -0.095833 1.190753 -3.445640
v 0.697672 1.190753 -3.458366
v -0.109173 1.190753 -3.013294
v 0.560924 1.190753 -3.022282
v -1.896310 1.190753 -3.022519
v -1.037362 1.190753 -3.213708
v -1.602479 1.190753 -2.648498
v -0.838885 1.190753 -2.849466
v -2.872251 1.190753 -1.224934
v -2.402139 1.190753 -2.149233
v -2.001631 1.190753 -1.938003
v -2.397780 1.190753 0.013048
v -2.939940 0.769304 -1.243200
v -2.439670 0.769304 -0.006711
v -2.034656 0.769304 -0.109307
v -1.566159 0.769304 1.005799
v -1.933911 0.769304 1.252362
v -1.960869 0.769304 -3.072165
v -2.464370 0.769304 -2.187597
v -0.153432 0.769304 -3.492612
v -1.044394 0.769304 -3.316919
v 1.480224 0.769304 -3.482371
v 0.659840 0.769304 -3.491828
v 2.312710 0.769304 -2.012358
v 1.893916 0.769304 -2.747545
v 1.914964 0.769304 -1.730188
v 1.557821 0.769304 -2.408877
v 3.210413 0.769304 -0.956504
v 2.734006 0.769304 -1.453849
v 2.725962 0.769304 -0.749018
v 2.336178 0.769304 -1.252073
v 3.012918 0.769304 1.183681
v 3.128624 0.769304 0.113138
v 2.651103 0.769304 1.003774
v 2.709833 0.769304 0.124885
v 1.897837 0.769304 2.355069
v 2.473268 0.769304 1.791018
v 1.686228 0.769304 2.007643
v 2.151065 0.769304 1.532979
v -0.700702 0.769303 2.479314
v 0.599788 0.769303 2.438006
v -0.485072 0.769304 2.032994
v 0.618331 0.769304 2.027298
v -1.342318 0.769304 1.900061
v -1.023917 0.769304 1.526549
v -0.181114 0.769304 -1.310839
v 0.174647 0.769304 -0.362337
v 0.661525 0.769304 0.127268
v 1.119347 0.769304 0.633837
v 1.689964 0.769304 1.035649
v 0.536325 1.190752 1.497493
v 0.132445 1.190753 -1.605083
v 0.130999 1.190753 -2.194600
v 0.347260 1.190753 -2.615053
v -0.174757 1.081500 -3.834409
v -2.233646 1.071401 1.465056
v 3.476038 1.081169 0.132876
v -2.772353 1.085257 0.089577
v 3.352056 1.081687 1.326541
v 0.767900 1.082058 -3.849687
v -2.181971 1.081688 -3.375254
v 0.620872 1.080908 2.759447
v 3.559633 1.078134 -1.055864
v -2.779085 1.081688 -2.338744
v -1.532231 1.077132 2.149520
v 2.716661 1.081687 2.034941
v 2.132812 1.081896 -3.010604
v 2.011118 1.081685 2.725189
v -1.177270 1.080457 -3.625766
v 2.568404 1.079703 -2.180098
v -3.303762 1.078641 -1.269946
v -0.833182 1.087901 2.806457
v 1.690014 1.090694 -3.822419
v 3.070598 1.075063 -1.619458
v -1.204763 0.877304 -3.654662
v -3.341691 0.875754 -1.276435
v 2.051696 0.878368 2.740403
v 3.519917 0.878444 0.120406
v 3.100174 0.878356 -1.634581
v 2.166571 0.878064 -3.046893
v -0.198813 0.878262 -3.863378
v 3.389586 0.878371 1.338304
v -0.839967 0.883757 2.844340
v -2.219720 0.878372 -3.395283
v 3.576085 0.876367 -1.052708
v -2.232144 0.874335 1.448953
v 0.761727 0.878744 -3.879351
v 0.606685 0.876785 2.817358
v -2.799515 0.881642 0.084728
v 2.614093 0.876981 -2.214524
v -1.553405 0.870203 2.179318
v 2.745943 0.878371 2.058683
v -2.816395 0.878371 -2.352326
v 1.727891 0.882677 -3.881166
vt 0.639749 0.460071
vt 0.608834 0.398706
vt 0.765563 0.322538
vt 0.780486 0.399398
vt 0.576123 0.334828
vt 0.747499 0.244150
vt 0.914730 0.151343
vt 0.918782 0.245174
vt 0.923770 0.340737
vt 0.424975 0.403755
vt 0.376669 0.445786
vt 0.266126 0.445209
vt 0.265498 0.414654
vt 0.324095 0.485811
vt 0.263448 0.475504
vt 0.202695 0.465266
vt 0.157101 0.445722
vt 0.110691 0.424945
vt 0.241913 0.831285
vt 0.243816 0.814436
vt 0.379389 0.815999
vt 0.379077 0.831745
vt 0.244936 0.800235
vt 0.379960 0.800246
vt 0.518454 0.799195
vt 0.520042 0.812770
vt 0.521210 0.828465
vt 0.022165 0.804911
vt 0.024444 0.789684
vt 0.131086 0.803556
vt 0.128996 0.819030
vt 0.026276 0.774681
vt 0.133827 0.787676
vt 0.757196 0.929227
vt 0.755718 0.913781
vt 0.865010 0.897409
vt 0.868178 0.912616
vt 0.755276 0.898171
vt 0.864441 0.881777
vt 0.971782 0.863708
vt 0.972132 0.879407
vt 0.974164 0.894833
vt 0.254340 0.915562
vt 0.256723 0.900109
vt 0.333949 0.910780
vt 0.332370 0.926341
vt 0.259166 0.884333
vt 0.334254 0.896421
vt 0.409891 0.907043
vt 0.409331 0.922515
vt 0.410804 0.937369
vt 0.519967 0.732201
vt 0.521195 0.716733
vt 0.656654 0.706060
vt 0.657738 0.721590
vt 0.521224 0.701158
vt 0.656422 0.690723
vt 0.787857 0.678350
vt 0.792070 0.693896
vt 0.796033 0.710080
vt 0.222379 0.744421
vt 0.223065 0.728849
vt 0.375357 0.723669
vt 0.372276 0.738989
vt 0.225754 0.713415
vt 0.374027 0.707922
vt 0.024156 0.709073
vt 0.028536 0.694072
vt 0.120189 0.711907
vt 0.118440 0.727335
vt 0.027800 0.678439
vt 0.121867 0.696482
vt 0.727893 0.800524
vt 0.730443 0.816119
vt 0.726703 0.785478
vt 0.932550 0.774948
vt 0.934997 0.790217
vt 0.937348 0.805558
vt 0.580153 0.918757
vt 0.581997 0.902913
vt 0.580354 0.934069
vt 0.024314 0.895540
vt 0.028559 0.879354
vt 0.142139 0.890195
vt 0.139520 0.905704
vt 0.032536 0.863681
vt 0.144475 0.874597
vt 0.934152 0.490738
vt 0.909556 0.466086
vt 0.931886 0.405016
vt 0.960720 0.421214
vt 0.887435 0.442997
vt 0.901591 0.391602
vt 0.951792 0.341813
vt 0.992568 0.351757
vt 0.733511 0.571581
vt 0.721892 0.533759
vt 0.821223 0.503499
vt 0.828288 0.530322
vt 0.733618 0.505034
vt 0.809135 0.473577
vt 0.594741 0.510187
vt 0.612485 0.485242
vt 0.671711 0.513717
vt 0.661848 0.542563
vt 0.678862 0.480545
vt 0.504453 0.342910
vt 0.537863 0.340837
vt 0.576059 0.414401
vt 0.549228 0.427503
vt 0.539708 0.230930
vt 0.568417 0.237107
vt 0.551206 0.288349
vt 0.520781 0.286669
vt 0.600300 0.239797
vt 0.588263 0.287487
vt 0.549684 0.084756
vt 0.576736 0.105282
vt 0.571817 0.170684
vt 0.543657 0.156982
vt 0.607192 0.127643
vt 0.604574 0.183034
vt 0.678103 0.027080
vt 0.684685 0.055610
vt 0.628291 0.078981
vt 0.611320 0.054181
vt 0.699341 0.086970
vt 0.651774 0.106836
vt 0.832114 -0.001103
vt 0.825149 0.031548
vt 0.758477 0.043811
vt 0.755999 0.011949
vt 0.816281 0.068032
vt 0.756027 0.076655
vt 0.979470 0.118901
vt 0.951035 0.133738
vt 0.888543 0.080222
vt 0.907431 0.056576
vt 0.866984 0.108011
vt 0.956828 0.239238
vt 0.983345 0.233628
vt 0.490145 0.430449
vt 0.460688 0.416910
vt 0.461467 0.317415
vt 0.489173 0.322217
vt 0.429374 0.312946
vt 0.428833 0.222723
vt 0.462523 0.216206
vt 0.490145 0.211538
vt 0.345138 0.545050
vt 0.336229 0.515092
vt 0.398573 0.468461
vt 0.419259 0.489934
vt 0.187395 0.519564
vt 0.194117 0.492570
vt 0.263234 0.505848
vt 0.266444 0.533689
vt 0.046297 0.466524
vt 0.077240 0.445310
vt 0.135805 0.469340
vt 0.117028 0.493470
vt 0.032270 0.325944
vt 0.061114 0.320249
vt 0.069355 0.382865
vt 0.040024 0.396083
vt 0.098011 0.312132
vt 0.103504 0.369096
vt 0.000000 0.217725
vt 0.028030 0.221880
vt 0.047455 0.269742
vt 0.015082 0.272088
vt 0.068931 0.221382
vt 0.081974 0.267169
vt 0.083046 0.058512
vt 0.105655 0.079971
vt 0.065613 0.150474
vt 0.037529 0.139007
vt 0.126273 0.102684
vt 0.096001 0.161598
vt 0.220125 0.000000
vt 0.220372 0.030996
vt 0.162372 0.053482
vt 0.151258 0.026836
vt 0.225249 0.060977
vt 0.177832 0.080452
vt 0.431820 0.074666
vt 0.410446 0.096481
vt 0.315939 0.062269
vt 0.326742 0.035588
vt 0.381745 0.121104
vt 0.302431 0.090053
vt 0.439293 0.154697
vt 0.462105 0.141595
vt 0.405380 0.171372
vt 0.260794 0.342955
vt 0.263400 0.267430
vt 0.242994 0.219804
vt 0.225175 0.171836
vt 0.196160 0.127876
vt 0.796887 0.438191
vt 0.726964 0.197845
vt 0.708365 0.154484
vt 0.679768 0.130213
vt 0.262422 0.868369
vt 0.148027 0.858846
vt 0.038118 0.847894
vt 0.410739 0.891304
vt 0.583530 0.886817
vt 0.753918 0.882326
vt 0.928823 0.759583
vt 0.724952 0.770299
vt 0.517030 0.785439
vt 0.229592 0.697665
vt 0.125057 0.680800
vt 0.028905 0.662612
vt 0.521371 0.685311
vt 0.373328 0.691878
vt 0.782831 0.662612
vt 0.655836 0.675149
vt 0.335111 0.881834
vt 0.969760 0.847893
vt 0.862575 0.865968
vt 0.247174 0.785850
vt 0.138075 0.771657
vt 0.029989 0.759583
vt 0.381180 0.784309
vt 0.253024 0.930770
vt 0.138482 0.921013
vt 0.022165 0.911572
vt 0.412642 0.951881
vt 0.580161 0.949053
vt 0.757487 0.944366
vt 0.938039 0.820774
vt 0.732260 0.831543
vt 0.522584 0.843933
vt 0.223194 0.759583
vt 0.118659 0.742431
vt 0.022165 0.723824
vt 0.518907 0.747316
vt 0.370025 0.753926
vt 0.798928 0.726009
vt 0.658372 0.736813
vt 0.331508 0.941609
vt 0.974037 0.910106
vt 0.869663 0.927592
vt 0.241468 0.847893
vt 0.128869 0.834318
vt 0.022329 0.820016
vt 0.379608 0.847248
vn 0.000000 1.000000 0.000000
vn 0.000000 -1.000000 0.000000
vn -0.356500 0.118600 0.926700
vn -0.341300 0.211600 0.915800
vn -0.699200 0.111700 0.706100
vn -0.706300 0.066100 0.704800
vn -0.342500 0.281300 0.896400
vn -0.685900 0.141500 0.713800
vn -0.833200 0.035200 0.551900
vn -0.839800 0.046100 0.540800
vn -0.839400 0.047600 0.541300
vn 0.400500 0.104300 0.910300
vn 0.404500 0.193900 0.893700
vn 0.031800 0.204700 0.978300
vn 0.036100 0.115500 0.992600
vn 0.376200 0.258000 0.889900
vn 0.028700 0.270800 0.962200
vn 0.908600 0.095800 0.406500
vn 0.899300 0.195100 0.391300
vn 0.712600 0.181400 0.677700
vn 0.719600 0.103500 0.686600
vn 0.879000 0.268100 0.394300
vn 0.701300 0.238100 0.671900
vn 0.812400 0.192100 -0.550500
vn 0.802900 0.233400 -0.548500
vn 0.748400 0.162800 -0.642900
vn 0.765400 0.112200 -0.633700
vn 0.792900 0.262200 -0.550000
vn 0.735800 0.197700 -0.647600
vn 0.925700 0.215300 -0.310800
vn 0.934800 0.134800 -0.328700
vn 0.950200 0.035900 -0.309600
vn -0.110700 0.059700 -0.992000
vn -0.104000 0.154500 -0.982500
vn -0.001400 0.176900 -0.984200
vn -0.009600 0.117400 -0.993000
vn -0.107200 0.227600 -0.967800
vn 0.005000 0.220800 -0.975300
vn 0.492700 0.302600 -0.815900
vn 0.501600 0.268300 -0.822400
vn 0.500800 0.202900 -0.841400
vn -0.604400 0.097800 -0.790600
vn -0.609800 0.191200 -0.769100
vn -0.220500 0.157600 -0.962600
vn -0.225600 0.061400 -0.972300
vn -0.581300 0.254500 -0.772900
vn -0.217000 0.234500 -0.947600
vn -0.988500 0.146100 -0.039300
vn -0.981400 0.179600 -0.067700
vn -0.868200 0.190800 -0.458000
vn -0.876100 0.131900 -0.463700
vn -0.983200 0.178200 -0.040600
vn -0.859300 0.229100 -0.457200
vn -0.925000 0.085100 0.370300
vn -0.923100 0.084900 0.375000
vn -0.928600 0.075800 0.363300
vn 0.982400 0.169000 0.079900
vn 0.961700 0.261000 0.083700
vn 0.995300 0.057400 0.077200
vn 0.854900 0.249900 -0.454500
vn 0.866300 0.195100 -0.459900
vn 0.844600 0.289800 -0.450100
vn -0.247200 0.751900 0.611100
vn -0.005600 0.999900 0.012000
vn -0.013100 0.999800 0.009900
vn -0.437100 0.773300 0.459200
vn -0.000000 1.000000 0.000200
vn -0.017100 0.999800 0.011500
vn -0.598400 0.687400 0.411500
vn 0.224100 0.747000 0.625800
vn 0.004900 0.999900 0.009300
vn 0.000200 0.999900 0.010300
vn 0.014800 0.812000 0.583400
vn 0.000000 1.000000 0.000100
vn 0.595800 0.756300 0.270200
vn 0.010500 0.999900 0.004200
vn 0.007000 0.999900 0.006700
vn 0.439000 0.792700 0.422800
vn 0.653900 0.722400 -0.224600
vn 0.015500 0.999800 -0.009600
vn 0.010700 0.999900 0.000500
vn 0.595700 0.801500 0.052900
vn 0.465000 0.824400 -0.322600
vn 0.011800 0.999900 -0.006300
vn 0.015700 0.999800 -0.012600
vn 0.476800 0.769400 -0.425000
vn 0.349500 0.742300 -0.571600
vn 0.001600 1.000000 -0.003000
vn 0.007800 0.999900 -0.002600
vn 0.521300 0.807800 -0.275100
vn -0.068800 0.776100 -0.626800
vn -0.001300 0.999900 -0.010700
vn -0.001300 0.999900 -0.008000
vn 0.003400 0.786000 -0.618200
vn -0.378300 0.738400 -0.558200
vn -0.006500 0.999900 -0.009000
vn -0.002100 0.999900 -0.009500
vn -0.134500 0.793400 -0.593700
vn -0.702400 0.711800 -0.000400
vn -0.012400 0.999900 -0.000500
vn -0.009000 0.999900 -0.004700
vn -0.539500 0.790600 -0.289400
vn -0.013500 0.999900 0.007600
vn -0.615900 0.750200 0.240400
vn -0.797200 -0.603700 -0.003300
vn -0.010800 -0.999900 -0.000100
vn -0.007700 -0.999900 0.002600
vn -0.663200 -0.697400 0.271500
vn -0.003700 -1.000000 -0.000200
vn -0.622800 -0.677000 0.392000
vn -0.472100 -0.617500 -0.629100
vn -0.006700 -0.999900 -0.009000
vn -0.008300 -0.999900 -0.004500
vn -0.652000 -0.674400 -0.346500
vn -0.087800 -0.684000 -0.724100
vn -0.001100 -0.999900 -0.010400
vn -0.002300 -0.999900 -0.010000
vn -0.162500 -0.698900 -0.696500
vn 0.432100 -0.554000 -0.711600
vn 0.005100 -0.999900 -0.009000
vn -0.000100 -0.999900 -0.009600
vn -0.010400 -0.681800 -0.731400
vn 0.613100 -0.673000 -0.413700
vn 0.007400 -0.999900 -0.004900
vn 0.008000 -0.999900 -0.004400
vn 0.670500 -0.651000 -0.355900
vn 0.734800 -0.639100 -0.227300
vn 0.011500 -0.999900 -0.003800
vn 0.007200 -0.999900 -0.005900
vn 0.571900 -0.676400 -0.464000
vn 0.710000 -0.630700 0.313100
vn 0.010300 -0.999900 0.004400
vn 0.010500 -0.999900 0.000800
vn 0.715200 -0.696800 0.053000
vn 0.330000 -0.620100 0.711700
vn 0.004700 -0.999900 0.009200
vn 0.007100 -0.999900 0.006700
vn 0.527400 -0.683600 0.504400
vn -0.282000 -0.615300 0.736000
vn 0.001200 -1.000000 0.005100
vn 0.000600 -1.000000 0.007500
vn 0.028400 -0.683500 0.729400
vn 0.000700 -1.000000 -0.000300
vn -0.501100 -0.706500 0.499700
usemtl defaultMat
s 1
f 1/1/1 2/2/1 3/3/1 4/4/1
f 5/5/1 6/6/1 3/3/1 2/2/1
f 7/7/1 8/8/1 3/3/1 6/6/1
f 9/9/1 4/4/1 3/3/1 8/8/1
f 10/10/2 11/11/2 12/12/2 13/13/2
f 14/14/2 15/15/2 12/12/2 11/11/2
f 16/16/2 17/17/2 12/12/2 15/15/2
f 18/18/2 13/13/2 12/12/2 17/17/2
f 183/19/3 20/20/4 21/21/5 191/22/6
f 172/23/7 165/24/8 21/21/5 20/20/4
f 156/25/9 26/26/10 21/21/5 165/24/8
f 186/27/11 191/22/6 21/21/5 26/26/10
f 177/28/12 29/29/13 30/30/14 188/31/15
f 168/32/16 162/33/17 30/30/14 29/29/13
f 172/23/7 20/20/4 30/30/14 162/33/17
f 183/19/3 188/31/15 30/30/14 20/20/4
f 182/34/18 35/35/19 36/36/20 192/37/21
f 159/38/22 166/39/23 36/36/20 35/35/19
f 168/40/16 29/41/13 36/36/20 166/39/23
f 177/42/12 192/37/21 36/36/20 29/41/13
f 190/43/24 41/44/25 42/45/26 179/46/27
f 170/47/28 174/48/29 42/45/26 41/44/25
f 163/49/30 47/50/31 42/45/26 174/48/29
f 185/51/32 179/46/27 42/45/26 47/50/31
f 181/52/33 50/53/34 51/54/35 187/55/36
f 155/56/37 160/57/38 51/54/35 50/53/34
f 173/58/39 56/59/40 51/54/35 160/57/38
f 194/60/41 187/55/36 51/54/35 56/59/40
f 184/61/42 59/62/43 60/63/44 175/64/45
f 161/65/46 169/66/47 60/63/44 59/62/43
f 155/56/37 50/53/34 60/63/44 169/66/47
f 181/52/33 175/64/45 60/63/44 50/53/34
f 176/67/48 65/68/49 66/69/50 193/70/51
f 171/71/52 164/72/53 66/69/50 65/68/49
f 161/65/46 59/62/43 66/69/50 164/72/53
f 184/61/42 193/70/51 66/69/50 59/62/43
f 186/27/11 26/26/10 70/73/54 189/74/55
f 156/25/9 158/75/56 70/73/54 26/26/10
f 171/76/52 65/77/49 70/73/54 158/75/56
f 176/78/48 189/74/55 70/73/54 65/77/49
f 159/38/22 35/35/19 73/79/57 157/80/58
f 182/34/18 178/81/59 73/79/57 35/35/19
f 185/51/32 47/50/31 73/79/57 178/81/59
f 163/49/30 157/80/58 73/79/57 47/50/31
f 194/82/41 56/83/40 76/84/60 180/85/61
f 173/86/39 167/87/62 76/84/60 56/83/40
f 170/47/28 41/44/25 76/84/60 167/87/62
f 190/43/24 180/85/61 76/84/60 41/44/25
f 23/88/63 79/89/64 80/90/65 24/91/66
f 81/92/67 82/93/1 80/90/65 79/89/64
f 9/9/1 83/94/68 80/90/65 82/93/1
f 25/95/69 24/91/66 80/90/65 83/94/68
f 32/96/70 84/97/71 85/98/72 33/99/73
f 86/100/1 87/101/74 85/98/72 84/97/71
f 81/92/67 79/89/64 85/98/72 87/101/74
f 23/88/63 33/99/73 85/98/72 79/89/64
f 38/102/75 88/103/76 89/104/77 39/105/78
f 1/1/1 90/106/1 89/104/77 88/103/76
f 86/100/1 84/97/71 89/104/77 90/106/1
f 32/96/70 39/105/78 89/104/77 84/97/71
f 46/107/79 91/108/80 92/109/81 74/110/82
f 5/5/1 2/2/1 92/109/81 91/108/80
f 1/1/1 88/103/76 92/109/81 2/2/1
f 38/102/75 74/110/82 92/109/81 88/103/76
f 44/111/83 93/112/84 94/113/85 45/114/86
f 95/115/1 96/116/1 94/113/85 93/112/84
f 5/5/1 91/108/80 94/113/85 96/116/1
f 46/107/79 45/114/86 94/113/85 91/108/80
f 55/117/87 97/118/88 98/119/89 78/120/90
f 99/121/1 100/122/1 98/119/89 97/118/88
f 95/115/1 93/112/84 98/119/89 100/122/1
f 44/111/83 78/120/90 98/119/89 93/112/84
f 53/123/91 101/124/92 102/125/93 54/126/94
f 103/127/1 104/128/1 102/125/93 101/124/92
f 99/121/1 97/118/88 102/125/93 104/128/1
f 55/117/87 54/126/94 102/125/93 97/118/88
f 62/129/95 105/130/96 106/131/97 63/132/98
f 107/133/1 108/134/1 106/131/97 105/130/96
f 103/127/1 101/124/92 106/131/97 108/134/1
f 53/123/91 63/132/98 106/131/97 101/124/92
f 68/135/99 109/136/100 110/137/101 69/138/102
f 7/7/1 111/139/1 110/137/101 109/136/100
f 107/133/1 105/130/96 110/137/101 111/139/1
f 62/129/95 69/138/102 110/137/101 105/130/96
f 25/95/69 83/94/68 112/140/103 72/141/104
f 9/9/1 8/8/1 112/140/103 83/94/68
f 7/7/1 109/136/100 112/140/103 8/8/1
f 68/135/99 72/141/104 112/140/103 109/136/100
f 64/142/105 113/143/106 114/144/107 71/145/108
f 10/10/2 115/146/2 114/144/107 113/143/106
f 116/147/2 117/148/109 114/144/107 115/146/2
f 27/149/110 71/145/108 114/144/107 117/148/109
f 58/150/111 118/151/112 119/152/113 67/153/114
f 14/14/2 11/11/2 119/152/113 118/151/112
f 10/10/2 113/143/106 119/152/113 11/11/2
f 64/142/105 67/153/114 119/152/113 113/143/106
f 49/154/115 120/155/116 121/156/117 61/157/118
f 16/16/2 15/15/2 121/156/117 120/155/116
f 14/14/2 118/151/112 121/156/117 15/15/2
f 58/150/111 61/157/118 121/156/117 118/151/112
f 57/158/119 122/159/120 123/160/121 52/161/122
f 18/18/2 17/17/2 123/160/121 122/159/120
f 16/16/2 120/155/116 123/160/121 17/17/2
f 49/154/115 52/161/122 123/160/121 120/155/116
f 40/162/123 124/163/124 125/164/125 77/165/126
f 126/166/2 127/167/2 125/164/125 124/163/124
f 18/18/2 122/159/120 125/164/125 127/167/2
f 57/158/119 77/165/126 125/164/125 122/159/120
f 48/168/127 128/169/128 129/170/129 43/171/130
f 130/172/2 131/173/2 129/170/129 128/169/128
f 126/166/2 124/163/124 129/170/129 131/173/2
f 40/162/123 43/171/130 129/170/129 124/163/124
f 34/174/131 132/175/132 133/176/133 75/177/134
f 134/178/2 135/179/2 133/176/133 132/175/132
f 130/172/2 128/169/128 133/176/133 135/179/2
f 48/168/127 75/177/134 133/176/133 128/169/128
f 28/180/135 136/181/136 137/182/137 37/183/138
f 138/184/2 139/185/2 137/182/137 136/181/136
f 134/178/2 132/175/132 137/182/137 139/185/2
f 34/174/131 37/183/138 137/182/137 132/175/132
f 19/186/139 140/187/140 141/188/141 31/189/142
f 142/190/2 143/191/2 141/188/141 140/187/140
f 138/184/2 136/181/136 141/188/141 143/191/2
f 28/180/135 31/189/142 141/188/141 136/181/136
f 27/149/110 117/148/109 144/192/143 22/193/144
f 116/147/2 145/194/2 144/192/143 117/148/109
f 142/190/2 140/187/140 144/192/143 145/194/2
f 19/186/139 22/193/144 144/192/143 140/187/140
f 10/10/2 13/13/2 146/195/2 115/146/2
f 18/18/2 127/167/2 146/195/2 13/13/2
f 126/166/2 147/196/2 146/195/2 127/167/2
f 116/147/2 115/146/2 146/195/2 147/196/2
f 126/166/2 131/173/2 148/197/2 147/196/2
f 130/172/2 149/198/2 148/197/2 131/173/2
f 142/190/2 145/194/2 148/197/2 149/198/2
f 116/147/2 147/196/2 148/197/2 145/194/2
f 130/172/2 135/179/2 150/199/2 149/198/2
f 134/178/2 139/185/2 150/199/2 135/179/2
f 138/184/2 143/191/2 150/199/2 139/185/2
f 142/190/2 149/198/2 150/199/2 143/191/2
f 81/92/67 87/101/74 151/200/1 82/93/1
f 86/100/1 90/106/1 151/200/1 87/101/74
f 1/1/1 4/4/1 151/200/1 90/106/1
f 9/9/1 82/93/1 151/200/1 4/4/1
f 5/5/1 96/116/1 152/201/1 6/6/1
f 95/115/1 153/202/1 152/201/1 96/116/1
f 107/133/1 111/139/1 152/201/1 153/202/1
f 7/7/1 6/6/1 152/201/1 111/139/1
f 95/115/1 100/122/1 154/203/1 153/202/1
f 99/121/1 104/128/1 154/203/1 100/122/1
f 103/127/1 108/134/1 154/203/1 104/128/1
f 107/133/1 153/202/1 154/203/1 108/134/1
f 44/204/83 170/47/28 167/87/62 78/205/90
f 55/206/87 78/205/90 167/87/62 173/86/39
f 46/207/79 74/208/82 157/80/58 163/49/30
f 38/209/75 159/38/22 157/80/58 74/208/82
f 68/210/99 171/76/52 158/75/56 72/211/104
f 25/212/69 72/211/104 158/75/56 156/25/9
f 62/213/95 161/65/46 164/72/53 69/214/102
f 68/215/99 69/214/102 164/72/53 171/71/52
f 53/216/91 155/56/37 169/66/47 63/217/98
f 62/213/95 63/217/98 169/66/47 161/65/46
f 55/218/87 173/58/39 160/57/38 54/219/94
f 53/216/91 54/219/94 160/57/38 155/56/37
f 46/207/79 163/49/30 174/48/29 45/220/86
f 44/204/83 45/220/86 174/48/29 170/47/28
f 32/221/70 168/40/16 166/39/23 39/222/78
f 38/209/75 39/222/78 166/39/23 159/38/22
f 23/223/63 172/23/7 162/33/17 33/224/73
f 32/225/70 33/224/73 162/33/17 168/32/16
f 25/212/69 156/25/9 165/24/8 24/226/66
f 23/223/63 24/226/66 165/24/8 172/23/7
f 40/227/123 77/228/126 180/85/61 190/43/24
f 57/229/119 194/82/41 180/85/61 77/228/126
f 48/230/127 185/51/32 178/81/59 75/231/134
f 34/232/131 75/231/134 178/81/59 182/34/18
f 64/233/105 71/234/108 189/74/55 176/78/48
f 27/235/110 186/27/11 189/74/55 71/234/108
f 58/236/111 67/237/114 193/70/51 184/61/42
f 64/238/105 176/67/48 193/70/51 67/237/114
f 49/239/115 61/240/118 175/64/45 181/52/33
f 58/236/111 184/61/42 175/64/45 61/240/118
f 57/241/119 52/242/122 187/55/36 194/60/41
f 49/239/115 181/52/33 187/55/36 52/242/122
f 48/230/127 43/243/130 179/46/27 185/51/32
f 40/227/123 190/43/24 179/46/27 43/243/130
f 28/244/135 37/245/138 192/37/21 177/42/12
f 34/232/131 182/34/18 192/37/21 37/245/138
f 19/246/139 31/247/142 188/31/15 183/19/3
f 28/248/135 177/28/12 188/31/15 31/247/142
f 27/235/110 22/249/144 191/22/6 186/27/11
f 19/246/139 183/19/3 191/22/6 22/249/144
