# Blender v2.74 (sub 0) OBJ File: 'schiefer.blend'
# www.blender.org
mtllib 06.mtl
o Group7
v -0.817059 2.053613 -2.034544
v 0.797787 2.053613 -1.783533
v 0.396805 2.053613 -2.791336
v -0.310571 2.053613 -2.756674
v 0.886823 1.771923 -1.882229
v -0.892838 1.771923 -2.082492
v -0.361426 1.771923 -2.835149
v 0.413542 1.771923 -2.868561
v -1.633734 1.769479 1.867845
v -0.062368 1.777424 2.729858
v -0.049185 2.048111 2.623848
v -1.585918 2.047583 1.837193
v 1.848560 1.777424 2.431422
v 1.785517 2.048111 2.371847
v 2.913784 1.777424 0.400903
v 2.850838 2.048111 0.374126
v 2.633966 1.772839 -1.387600
v 1.443660 1.777425 -2.306165
v 1.354034 2.016898 -2.230717
v 2.582397 2.029738 -1.349134
v 0.855214 1.775663 -3.589972
v -0.706256 1.777425 -3.474782
v -0.625903 2.047851 -3.430147
v 0.808545 2.040907 -3.471193
v -1.489796 1.777425 -2.448748
v -1.435805 2.048112 -2.381890
v -2.373914 1.777424 -0.467591
v -2.309216 2.048111 -0.457329
v 0.085383 2.053612 1.917318
v -0.934402 2.053612 1.316383
v 1.382151 2.053612 1.724075
v 2.078873 2.053613 0.293914
v 1.920492 2.053613 -0.995392
v -1.509123 2.053613 -0.439637
v -1.597428 1.771923 -0.431273
v -1.020024 1.771922 1.389116
v 1.963415 1.771923 -1.020923
v 2.171677 1.771922 0.295694
v 1.424161 1.771922 1.809534
v 0.056424 1.771922 2.039326
v 2.634311 1.858081 -1.380608
v 2.616989 1.944374 -1.367687
v 1.839001 1.867333 2.434898
v 1.817825 1.958257 2.414887
v -0.061041 1.867333 2.720035
v -0.056612 1.958257 2.684427
v -1.632877 1.861818 1.876695
v -1.616815 1.955234 1.866399
v -0.687325 1.867247 -3.481794
v -0.660335 1.958083 -3.466801
v 0.843505 1.863731 -3.572966
v 0.827828 1.952826 -3.533068
v 2.912463 1.867333 0.399756
v 2.891319 1.958257 0.390761
v -1.485756 1.867334 -2.440392
v -1.467620 1.958258 -2.417935
v -2.373087 1.867334 -0.462986
v -2.351354 1.958257 -0.459539
v 1.422053 1.856849 -2.293826
v 1.391948 1.937289 -2.268482
vt 0.872867 0.185159
vt 0.731563 0.138183
vt 0.805881 0.072689
vt 0.861778 0.105069
vt 0.215603 0.137300
vt 0.063629 0.196839
vt 0.074640 0.113100
vt 0.135717 0.077381
vt 0.632865 0.842301
vt 0.309316 0.831832
vt 0.313881 0.813461
vt 0.630911 0.824069
vt 0.030036 0.772036
vt 0.039489 0.755385
vt 0.978188 0.550201
vt 0.715359 0.614355
vt 0.711574 0.599098
vt 0.970725 0.535515
vt 0.435147 0.617020
vt 0.245055 0.568815
vt 0.249626 0.554812
vt 0.436961 0.602445
vt 0.812359 0.671557
vt 0.657732 0.721806
vt 0.656518 0.703497
vt 0.801989 0.654550
vt 0.416270 0.712209
vt 0.414898 0.694002
vt 0.025923 0.671881
vt 0.030815 0.654550
vt 0.954845 0.772273
vt 0.948315 0.755385
vt 0.433447 0.630902
vt 0.717141 0.628947
vt 0.716881 0.642538
vt 0.431898 0.643775
vt 0.027935 0.550122
vt 0.037032 0.535515
vt 0.774534 0.533239
vt 0.617335 0.533239
vt 0.635746 0.469962
vt 0.743338 0.463523
vt 0.479083 0.436028
vt 0.538657 0.400019
vt 0.475627 0.228495
vt 0.541527 0.254201
vt 0.568884 0.099067
vt 0.607861 0.155600
vt 0.705023 0.078432
vt 0.800714 0.000000
vt 0.915280 0.063278
vt 0.937430 0.182658
vt 0.928366 0.376204
vt 0.862783 0.344227
vt 0.170992 0.549110
vt 0.012515 0.391028
vt 0.076663 0.360906
vt 0.200228 0.484105
vt 0.000000 0.192529
vt 0.019778 0.075857
vt 0.140814 0.000000
vt 0.242570 0.079165
vt 0.377407 0.103045
vt 0.338848 0.161374
vt 0.475627 0.236329
vt 0.411336 0.259395
vt 0.475627 0.446550
vt 0.415098 0.414137
vt 0.334164 0.552168
vt 0.314532 0.491046
vt 0.240649 0.595533
vt 0.019457 0.578476
vt 0.022032 0.564552
vt 0.242039 0.582493
vt 0.958244 0.804478
vt 0.634498 0.875589
vt 0.634070 0.859606
vt 0.958180 0.788763
vt 0.416602 0.745804
vt 0.022677 0.704652
vt 0.023189 0.688711
vt 0.416842 0.729609
vt 0.652211 0.755385
vt 0.656285 0.739235
vt 0.821605 0.703686
vt 0.818948 0.688062
vt 0.981042 0.578714
vt 0.981654 0.564712
vt 0.305326 0.865638
vt 0.022677 0.803774
vt 0.024389 0.788290
vt 0.306442 0.849358
vn -0.003600 1.000000 -0.002100
vn 0.013400 0.999800 -0.009700
vn 0.016000 0.999800 -0.007200
vn -0.001300 1.000000 -0.005900
vn 0.001800 -1.000000 -0.001600
vn -0.003600 -1.000000 -0.002100
vn -0.002500 -1.000000 -0.003800
vn 0.001800 -1.000000 -0.003100
vn -0.717900 0.350400 0.601400
vn -0.157600 0.395200 0.904900
vn -0.100200 0.824300 0.557200
vn -0.466500 0.798100 0.381300
vn 0.522600 0.412500 0.746100
vn 0.336400 0.812000 0.476900
vn 0.926000 0.344600 0.154100
vn 0.595000 0.799500 0.082700
vn 0.799300 0.371000 -0.472600
vn 0.704300 0.432900 -0.562600
vn 0.353400 0.889800 -0.288600
vn 0.518400 0.792500 -0.321000
vn 0.453000 0.464600 -0.760900
vn -0.413700 0.415300 -0.810100
vn -0.248300 0.813300 -0.526200
vn 0.343200 0.805800 -0.482500
vn -0.798800 0.364700 -0.478400
vn -0.479600 0.831400 -0.280400
vn -0.942500 0.330200 -0.050300
vn -0.612200 0.789900 -0.035300
vn 0.847000 0.191800 -0.495700
vn 0.976000 0.140900 0.165900
vn 0.767400 -0.628000 0.129500
vn 0.688200 -0.589000 -0.423500
vn -0.000900 1.000000 0.004500
vn -0.003400 1.000000 0.002800
vn 0.002700 1.000000 0.003700
vn 0.007500 1.000000 -0.001400
vn 0.013300 0.999800 -0.015800
vn -0.004300 1.000000 -0.000200
vn -0.608400 -0.629300 0.483500
vn -0.779600 -0.624000 -0.054100
vn -0.002900 -1.000000 -0.001300
vn -0.000400 -1.000000 0.000700
vn -0.652000 -0.649300 -0.391600
vn -0.424900 -0.580600 -0.694400
vn 0.430200 -0.536300 -0.726100
vn 0.565800 -0.684500 -0.459600
vn 0.002000 -1.000000 -0.001300
vn 0.003500 -1.000000 0.001300
vn 0.486600 -0.595000 0.639600
vn 0.002800 -1.000000 0.003800
vn -0.131100 -0.634800 0.761500
vn 0.000700 -1.000000 0.003400
vn 0.474700 0.278600 -0.834800
vn 0.747900 0.294800 -0.594800
vn -0.760500 0.122900 0.637500
vn -0.990200 0.129100 -0.052700
vn -0.844100 0.180400 -0.504800
vn -0.452600 0.204700 -0.867900
vn 0.564200 0.178700 0.806000
vn -0.168600 0.157000 0.973100
usemtl defaultMat
s 1
f 1/1/1 2/2/2 3/3/3 4/4/4
f 5/5/5 6/6/6 7/7/7 8/8/8
f 48/9/9 46/10/10 11/11/11 12/12/12
f 46/10/10 44/13/13 14/14/14 11/11/11
f 44/15/13 54/16/15 16/17/16 14/18/14
f 42/19/17 60/20/18 19/21/19 20/22/20
f 52/23/21 50/24/22 23/25/23 24/26/24
f 50/24/22 56/27/25 26/28/26 23/25/23
f 56/27/25 58/29/27 28/30/28 26/28/26
f 58/31/27 48/9/9 12/12/12 28/32/28
f 41/33/29 53/34/30 15/35/31 17/36/32
f 60/20/18 52/37/21 24/38/24 19/21/19
f 12/39/12 11/40/11 29/41/33 30/42/34
f 11/40/11 14/43/14 31/44/35 29/41/33
f 14/43/14 16/45/16 32/46/36 31/44/35
f 16/45/16 20/47/20 33/48/37 32/46/36
f 20/47/20 19/49/19 2/2/2 33/48/37
f 19/49/19 24/50/24 3/3/3 2/2/2
f 24/50/24 23/51/23 4/4/4 3/3/3
f 23/51/23 26/52/26 1/1/1 4/4/4
f 26/52/26 28/53/28 34/54/38 1/1/1
f 28/53/28 12/39/12 30/42/34 34/54/38
f 9/55/39 27/56/40 35/57/41 36/58/42
f 27/56/40 25/59/43 6/6/6 35/57/41
f 25/59/43 22/60/44 7/7/7 6/6/6
f 22/60/44 21/61/45 8/8/8 7/7/7
f 21/61/45 18/62/46 5/5/5 8/8/8
f 18/62/46 17/63/32 37/64/47 5/5/5
f 17/63/32 15/65/31 38/66/48 37/64/47
f 15/65/31 13/67/49 39/68/50 38/66/48
f 13/67/49 10/69/51 40/70/52 39/68/50
f 10/69/51 9/55/39 36/58/42 40/70/52
f 34/54/38 33/48/37 2/2/2 1/1/1
f 30/42/34 32/46/36 33/48/37 34/54/38
f 30/42/34 29/41/33 31/44/35 32/46/36
f 37/64/47 35/57/41 6/6/6 5/5/5
f 36/58/42 35/57/41 37/64/47 38/66/48
f 36/58/42 38/66/48 39/68/50 40/70/52
f 18/71/46 21/72/45 51/73/53 59/74/54
f 59/74/54 51/73/53 52/37/21 60/20/18
f 20/22/20 16/17/16 54/16/15 42/19/17
f 42/19/17 54/16/15 53/34/30 41/33/29
f 27/75/40 9/76/39 47/77/55 57/78/56
f 57/78/56 47/77/55 48/9/9 58/31/27
f 25/79/43 27/80/40 57/81/56 55/82/57
f 55/82/57 57/81/56 58/29/27 56/27/25
f 22/83/44 25/79/43 55/82/57 49/84/58
f 49/84/58 55/82/57 56/27/25 50/24/22
f 21/85/45 22/83/44 49/84/58 51/86/53
f 51/86/53 49/84/58 50/24/22 52/23/21
f 17/36/32 18/71/46 59/74/54 41/33/29
f 41/33/29 59/74/54 60/20/18 42/19/17
f 13/87/49 15/35/31 53/34/30 43/88/59
f 43/88/59 53/34/30 54/16/15 44/15/13
f 10/89/51 13/90/49 43/91/59 45/92/60
f 45/92/60 43/91/59 44/13/13 46/10/10
f 9/76/39 10/89/51 45/92/60 47/77/55
f 47/77/55 45/92/60 46/10/10 48/9/9
