# Blender v2.74 (sub 0) OBJ File: 'schiefer.blend'
# www.blender.org
mtllib 05.mtl
o Group6
v 1.344194 1.771858 -3.195158
v 0.709350 1.771922 -3.395342
v -0.440452 1.771922 -3.045317
v -0.225203 1.771922 -2.596414
v 0.075047 1.770738 -3.555674
v -0.667047 1.771922 -3.474060
v -1.342717 1.771922 -3.447877
v -1.583138 1.771922 -2.735118
v -1.784561 1.771922 -2.031814
v -2.536948 1.490232 -0.188071
v -2.243787 1.490232 -1.105539
v -0.241474 1.490232 -1.802979
v -0.183531 1.490232 -0.979761
v -1.899182 1.490232 -2.037773
v -0.241084 1.490232 -2.659621
v 1.380870 1.490232 -3.269183
v 1.775266 1.490232 -2.530990
v 2.191324 1.490232 -1.801143
v 0.497388 1.494302 3.144563
v 0.473417 1.631072 3.142536
v -0.552832 1.614929 2.618419
v -0.543417 1.493113 2.635297
v 0.466021 1.766969 3.079654
v -0.553853 1.753057 2.582205
v -1.545955 1.758557 2.032857
v -1.615470 1.616944 2.107751
v -1.652125 1.492652 2.143653
v 3.375222 1.495183 1.848984
v 3.361902 1.631076 1.825501
v 1.928850 1.631076 2.513931
v 1.937886 1.495183 2.541795
v 3.302082 1.766970 1.800037
v 1.926716 1.766969 2.437406
v 3.982121 1.469953 -0.331075
v 4.016526 1.628084 -0.346842
v 3.731797 1.631076 0.739200
v 3.774558 1.495184 0.726748
v 3.956913 1.766970 -0.335513
v 3.694145 1.766970 0.706755
v 2.001986 1.495794 -4.045643
v 1.999151 1.630998 -4.035136
v 2.499221 1.629666 -3.129139
v 2.481239 1.504820 -3.135573
v 1.948757 1.766969 -3.968611
v 2.487861 1.766534 -3.114550
v 2.991160 1.766970 -2.213320
v 3.038394 1.630916 -2.251523
v 3.024262 1.496485 -2.241969
v -2.005084 1.487223 -4.358229
v -1.985124 1.620474 -4.331745
v -0.962702 1.630851 -4.413074
v -0.943098 1.494274 -4.463207
v -1.943353 1.762117 -4.300626
v -0.957375 1.766971 -4.344806
v 0.111826 1.764780 -4.387441
v 0.101552 1.620440 -4.408865
v 0.102633 1.472499 -4.415861
v -2.712339 1.495184 -2.374559
v -2.734422 1.631077 -2.314684
v -2.383734 1.631076 -3.347032
v -2.419657 1.495172 -3.349215
v -2.694009 1.766970 -2.276646
v -2.335549 1.766970 -3.309939
v -3.628076 1.497112 0.060347
v -3.629535 1.623234 0.083122
v -3.185874 1.631077 -1.140293
v -3.205512 1.495184 -1.147669
v -3.545429 1.765781 0.036609
v -3.172914 1.766970 -1.091240
v -2.664577 1.630948 1.118998
v -2.680983 1.496044 1.131461
v -2.609288 1.766896 1.084830
v 3.542179 1.631034 -1.299697
v 3.497118 1.766970 -1.286116
v 3.551995 1.495181 -1.299466
v 1.095190 1.623299 -4.256113
v 1.057275 1.488802 -4.253392
v 1.054618 1.766478 -4.211655
v 0.493619 1.771921 2.580984
v -0.441211 1.771921 2.190988
v 0.500896 1.771921 2.103323
v -0.255180 1.771921 1.749024
v -1.003885 1.771921 1.332531
v -1.315558 1.771921 1.702377
v 2.964269 1.771921 1.470177
v 1.751365 1.771921 2.037898
v 2.593371 1.771921 1.165867
v 1.543238 1.771921 1.644194
v 3.497412 1.771922 -0.297251
v 3.250158 1.771921 0.602297
v 2.961508 1.771922 -0.224840
v 2.784958 1.771921 0.488627
v 2.625638 1.771913 -2.016417
v 3.079546 1.771112 -1.163035
v 2.137247 1.771081 -1.752103
v 2.564412 1.771922 -0.992544
v 1.682879 1.768639 -3.599591
v 2.157364 1.771922 -2.817244
v 1.739830 1.771641 -2.479032
v 0.084176 1.771922 -3.964882
v 0.903814 1.771464 -3.809711
v -1.663930 1.771922 -3.864889
v -0.814771 1.771922 -3.917457
v -2.269036 1.771922 -2.141174
v -1.977082 1.771922 -3.018403
v -3.083297 1.771922 -0.027086
v -2.706867 1.771922 -1.074394
v -2.506951 1.771922 -0.149947
v -2.182045 1.771922 -1.072457
v -2.240211 1.771858 0.865891
v -1.776391 1.771921 0.601925
v -3.126405 1.472761 -0.039535
v -2.299112 1.490232 0.892043
v -1.785467 1.490232 0.578649
v -1.069613 1.490232 1.402610
v -1.396987 1.490232 1.785710
v -2.369483 1.490232 -2.162011
v -2.738572 1.490232 -1.136947
v -1.711028 1.490119 -3.953506
v -2.039101 1.490232 -3.086103
v -1.403845 1.490226 -3.524874
v -1.639065 1.490232 -2.809471
v 0.089725 1.490233 -4.057456
v -0.815245 1.490233 -4.029274
v 0.061884 1.490233 -3.636185
v -0.673066 1.490233 -3.580719
v 1.714126 1.487165 -3.662020
v 0.971535 1.490233 -3.936944
v 0.716556 1.490233 -3.464756
v 2.665321 1.489970 -2.049981
v 2.186092 1.490232 -2.858673
v 3.571064 1.490232 -0.288744
v 3.142509 1.490232 -1.182530
v 3.046580 1.490232 -0.227027
v 2.633374 1.490232 -1.017828
v 3.073516 1.490232 1.487809
v 3.329577 1.490232 0.628229
v 2.673067 1.490232 1.212635
v 2.849769 1.490232 0.529560
v 0.526971 1.490229 2.656574
v 1.760329 1.490232 2.148206
v 0.543919 1.490232 2.167035
v 1.580464 1.490232 1.724421
v -0.443380 1.490232 2.249024
v -0.247354 1.490232 1.797859
v -0.436756 1.490232 -3.145326
v 0.420733 1.490232 -0.218996
v 0.981412 1.490232 0.585417
v 1.285036 1.490232 1.164693
v 1.272821 1.771921 1.095685
v 0.969244 1.771921 0.553909
v 0.394190 1.771922 -0.198115
v -0.137405 1.771922 -0.994030
v -0.214702 1.771922 -1.773910
v -1.967387 1.691288 -4.320712
v -1.583328 1.687738 2.074643
v 3.524112 1.699006 -1.293237
v -2.641014 1.698925 1.104908
v 3.991831 1.697529 -0.340186
v -0.961793 1.698914 -4.383554
v -2.718405 1.699027 -2.297387
v 1.930037 1.699026 2.480569
v 3.018540 1.698947 -2.234056
v -3.184229 1.699027 -1.115851
v -0.554532 1.683976 2.605386
v 3.717703 1.699027 0.725446
v 1.075974 1.694886 -4.238296
v 3.336195 1.699027 1.816750
v -2.363339 1.699027 -3.331641
v 1.976272 1.698987 -4.005964
v -3.592883 1.694505 0.061413
v 0.469949 1.699024 3.116878
v 0.106415 1.692605 -4.402793
v 2.496580 1.698102 -3.124713
v -2.410821 1.563135 -3.355855
v -3.642073 1.560174 0.075547
v 3.378914 1.563141 1.847014
v 3.558041 1.563118 -1.300398
v 2.497617 1.567267 -3.139359
v 1.078846 1.556037 -4.265544
v -2.002856 1.553828 -4.356082
v 4.011804 1.548982 -0.336532
v 0.486022 1.562696 3.157731
v -2.733591 1.563141 -2.348965
v 3.040542 1.563713 -2.250760
v -1.640330 1.554780 2.136447
v -0.957135 1.562571 -4.449552
v 1.938875 1.563141 2.539965
v -2.682820 1.563508 1.132597
v 2.006303 1.563407 -4.050457
v -0.550993 1.554001 2.639295
v 3.764828 1.563141 0.739018
v -3.207499 1.563141 -1.144272
v 0.101419 1.546424 -4.423687
vt 0.756143 0.067219
vt 0.802673 0.069864
vt 0.869331 0.122477
vt 0.844136 0.147152
vt 0.848183 0.075170
vt 0.894772 0.099443
vt 0.938380 0.118314
vt 0.936508 0.172237
vt 0.932315 0.224538
vt 0.437756 0.151969
vt 0.440020 0.221019
vt 0.324414 0.316420
vt 0.301219 0.262204
vt 0.439239 0.292307
vt 0.344550 0.374301
vt 0.251954 0.454594
vt 0.208576 0.414235
vt 0.163967 0.374962
vt 0.577278 0.906580
vt 0.578943 0.897351
vt 0.678811 0.873984
vt 0.678872 0.882471
vt 0.578928 0.887783
vt 0.679245 0.864802
vt 0.779344 0.838664
vt 0.784122 0.848751
vt 0.787882 0.857607
vt 0.150810 0.864371
vt 0.152688 0.854922
vt 0.365977 0.877400
vt 0.365199 0.887006
vt 0.156305 0.845958
vt 0.364986 0.867537
vt 0.852915 0.685136
vt 0.851646 0.675013
vt 0.961344 0.657154
vt 0.963784 0.666466
vt 0.850507 0.665536
vt 0.958492 0.648272
vt 0.050589 0.812062
vt 0.052507 0.802939
vt 0.045602 0.820688
vt 0.283520 0.702485
vt 0.284556 0.693381
vt 0.424155 0.689010
vt 0.423126 0.697255
vt 0.286202 0.683837
vt 0.424194 0.679993
vt 0.563397 0.675829
vt 0.562937 0.685191
vt 0.563472 0.693975
vt 0.850757 0.769976
vt 0.848253 0.760730
vt 0.905632 0.729276
vt 0.910755 0.738120
vt 0.847421 0.751049
vt 0.901690 0.720316
vt 0.117507 0.664213
vt 0.116800 0.673635
vt 0.046900 0.657860
vt 0.050136 0.648626
vt 0.115378 0.683473
vt 0.043265 0.667298
vt 0.562530 0.775973
vt 0.557905 0.767047
vt 0.704977 0.764105
vt 0.705087 0.773684
vt 0.556210 0.757738
vt 0.703725 0.754679
vt 0.213227 0.785812
vt 0.212622 0.777305
vt 0.388179 0.771971
vt 0.387927 0.781349
vt 0.216812 0.767238
vt 0.384916 0.763042
vt 0.439623 0.933447
vt 0.439297 0.943933
vt 0.231768 0.943733
vt 0.231304 0.933504
vt 0.439297 0.956119
vt 0.232720 0.954239
vt 0.029476 0.956453
vt 0.028061 0.944582
vt 0.025925 0.935481
vt 0.708183 0.680108
vt 0.707460 0.670916
vt 0.709442 0.689191
vt 0.199583 0.684860
vt 0.197710 0.693529
vt 0.200110 0.675039
vt 0.658548 0.510568
vt 0.669068 0.476403
vt 0.739939 0.473908
vt 0.737646 0.503017
vt 0.680399 0.444163
vt 0.738680 0.439536
vt 0.798015 0.430548
vt 0.809286 0.463263
vt 0.816208 0.491278
vt 0.504422 0.352860
vt 0.534702 0.339279
vt 0.600112 0.408100
vt 0.578751 0.430470
vt 0.566518 0.328251
vt 0.623476 0.386950
vt 0.514322 0.192956
vt 0.543473 0.207162
vt 0.537431 0.273794
vt 0.505768 0.269559
vt 0.576784 0.225595
vt 0.570711 0.277948
vt 0.623997 0.091396
vt 0.643071 0.113868
vt 0.592245 0.159643
vt 0.567937 0.140806
vt 0.668526 0.143977
vt 0.621771 0.184132
vt 0.735665 0.000000
vt 0.743957 0.031499
vt 0.693539 0.071985
vt 0.679241 0.043662
vt 0.712527 0.105258
vt 0.866335 0.018419
vt 0.857701 0.047477
vt 0.800179 0.037130
vt 0.800238 0.006336
vt 0.998802 0.076299
vt 0.969728 0.098464
vt 0.915408 0.073428
vt 0.935313 0.048361
vt 0.997936 0.231142
vt 0.966751 0.229470
vt 0.969314 0.163204
vt 1.000000 0.152718
vt 0.996519 0.407951
vt 0.967824 0.391972
vt 0.969058 0.312152
vt 1.000000 0.322826
vt 0.933111 0.369128
vt 0.934635 0.298989
vt 0.890528 0.430546
vt 0.909290 0.454587
vt 0.866674 0.401083
vt 0.503852 0.108874
vt 0.473125 0.127721
vt 0.396653 0.084736
vt 0.416197 0.059352
vt 0.370163 0.118294
vt 0.303571 0.079892
vt 0.316140 0.046117
vt 0.324538 0.015783
vt 0.500780 0.295450
vt 0.473172 0.289359
vt 0.473382 0.211209
vt 0.504422 0.200673
vt 0.500835 0.446515
vt 0.471921 0.426264
vt 0.473137 0.359754
vt 0.504422 0.368352
vt 0.441579 0.404715
vt 0.440251 0.350713
vt 0.363221 0.501236
vt 0.355637 0.476711
vt 0.414642 0.452984
vt 0.433285 0.479215
vt 0.347558 0.447580
vt 0.394710 0.426110
vt 0.229276 0.522026
vt 0.239227 0.489169
vt 0.294659 0.489834
vt 0.296454 0.513280
vt 0.300358 0.451786
vt 0.119423 0.424828
vt 0.138571 0.403203
vt 0.189201 0.446279
vt 0.176258 0.472101
vt 0.011293 0.318836
vt 0.037400 0.306062
vt 0.086692 0.356108
vt 0.062445 0.373882
vt 0.070529 0.289245
vt 0.116385 0.332704
vt 0.000000 0.156922
vt 0.028393 0.174047
vt 0.031741 0.238291
vt 0.000083 0.242366
vt 0.061273 0.182980
vt 0.065698 0.233387
vt 0.159255 0.000000
vt 0.168789 0.033680
vt 0.099434 0.097766
vt 0.078464 0.075458
vt 0.179193 0.067161
vt 0.121267 0.122058
vt 0.242360 0.037813
vt 0.239865 0.009306
vt 0.240054 0.073019
vt 0.368882 0.402395
vt 0.243472 0.225381
vt 0.187572 0.184559
vt 0.153919 0.152747
vt 0.654748 0.356988
vt 0.688024 0.328318
vt 0.744280 0.292415
vt 0.798774 0.252465
vt 0.823116 0.202084
vt 0.288512 0.674128
vt 0.201539 0.665078
vt 0.119345 0.654682
vt 0.563753 0.666325
vt 0.706233 0.661596
vt 0.848468 0.655946
vt 0.031616 0.969123
vt 0.233888 0.965353
vt 0.439011 0.969123
vt 0.554465 0.748152
vt 0.382076 0.753821
vt 0.221893 0.756868
vt 0.845732 0.741110
vt 0.702014 0.744984
vt 0.054691 0.639324
vt 0.896740 0.711184
vt 0.424515 0.670822
vt 0.160551 0.836637
vt 0.055343 0.793578
vt 0.954441 0.639324
vt 0.578370 0.877744
vt 0.364046 0.857257
vt 0.773468 0.828240
vt 0.678858 0.855211
vt 0.284115 0.711184
vt 0.198044 0.701852
vt 0.116717 0.693033
vt 0.563755 0.702412
vt 0.709467 0.697957
vt 0.851985 0.694972
vt 0.025527 0.925937
vt 0.231333 0.923790
vt 0.439168 0.924264
vt 0.566995 0.784224
vt 0.388688 0.790016
vt 0.216022 0.793578
vt 0.851161 0.778587
vt 0.704078 0.782602
vt 0.042877 0.676567
vt 0.913374 0.746543
vt 0.422790 0.705129
vt 0.150486 0.872944
vt 0.042877 0.828734
vt 0.963277 0.675615
vt 0.574299 0.914650
vt 0.364533 0.895584
vt 0.788909 0.865633
vt 0.676934 0.889960
vn 0.001300 1.000000 -0.001600
vn 0.000500 1.000000 -0.000500
vn 0.000000 1.000000 -0.000600
vn 0.000000 1.000000 0.000000
vn 0.000100 1.000000 -0.000400
vn 0.000200 1.000000 -0.000000
vn 0.010200 -0.999900 -0.002200
vn 0.003300 -1.000000 -0.000700
vn 0.000000 -1.000000 0.000000
vn -0.001300 -1.000000 0.001400
vn -0.000400 -1.000000 0.000600
vn -0.000100 -1.000000 0.000100
vn -0.029500 0.082400 0.996200
vn -0.056200 0.304100 0.951000
vn -0.423100 0.303200 0.853800
vn -0.430900 0.113800 0.895200
vn -0.038100 0.390400 0.919900
vn -0.423000 0.357200 0.832700
vn -0.500600 0.465400 0.729900
vn -0.512400 0.419400 0.749400
vn -0.545000 0.237600 0.804000
vn 0.730200 0.202700 0.652400
vn 0.708100 0.375500 0.597900
vn 0.386200 0.353900 0.851800
vn 0.406600 0.167700 0.898000
vn 0.678400 0.408200 0.610800
vn 0.376300 0.415800 0.827900
vn 0.994900 -0.027000 -0.097200
vn 0.969400 0.212900 -0.122200
vn 0.915000 0.295000 0.275100
vn 0.954000 0.114600 0.277000
vn 0.927900 0.361700 -0.089500
vn 0.893700 0.357800 0.270500
vn 0.602500 -0.014200 -0.798000
vn 0.595700 0.246200 -0.764500
vn 0.851800 0.165000 -0.497100
vn 0.865600 -0.063000 -0.496800
vn 0.557100 0.394000 -0.731000
vn 0.822300 0.299200 -0.484100
vn 0.827000 0.316900 -0.464400
vn 0.855300 0.171500 -0.488900
vn 0.863900 -0.069000 -0.498800
vn -0.574300 0.265700 -0.774300
vn -0.555400 0.404800 -0.726400
vn -0.036000 0.324900 -0.945100
vn -0.033700 0.230400 -0.972500
vn -0.534200 0.400800 -0.744300
vn -0.038400 0.324400 -0.945100
vn 0.072900 0.270800 -0.959800
vn 0.079600 0.230000 -0.969900
vn 0.093300 0.095000 -0.991100
vn -0.936900 0.097600 -0.335700
vn -0.906200 0.262700 -0.331200
vn -0.888500 0.317900 -0.330900
vn -0.925400 0.169700 -0.338900
vn -0.886300 0.328000 -0.326900
vn -0.871700 0.366200 -0.325400
vn -0.977000 0.068600 0.201900
vn -0.914000 0.331900 0.233500
vn -0.907900 0.244900 -0.340000
vn -0.932900 0.090400 -0.348600
vn -0.880800 0.446900 0.156300
vn -0.894200 0.300900 -0.331400
vn -0.656100 0.385500 0.648700
vn -0.711100 0.136000 0.689800
vn -0.612800 0.499700 0.612000
vn 0.872800 0.196100 -0.447000
vn 0.830600 0.358500 -0.426100
vn 0.889900 -0.064900 -0.451500
vn 0.196600 0.222100 -0.955000
vn 0.192400 -0.003700 -0.981300
vn 0.194300 0.329300 -0.924000
vn -0.036500 0.788900 0.613400
vn -0.004000 0.999900 0.010600
vn -0.009100 0.999800 0.016000
vn -0.257400 0.829600 0.495500
vn -0.008100 0.999800 0.014800
vn -0.299300 0.847000 0.439300
vn 0.430300 0.802500 0.413200
vn 0.004900 1.000000 0.004300
vn 0.002300 1.000000 0.005200
vn 0.215400 0.853800 0.473900
vn 0.612100 0.788400 -0.060700
vn 0.006300 1.000000 -0.000800
vn 0.005400 1.000000 0.001600
vn 0.532000 0.831700 0.158800
vn 0.000200 1.000000 -0.000200
vn 0.495800 0.823500 -0.275800
vn 0.004900 1.000000 -0.002600
vn 0.005000 1.000000 -0.002700
vn 0.492900 0.832200 -0.253900
vn -0.000100 1.000000 0.000100
vn 0.000100 1.000000 -0.000300
vn 0.368600 0.793100 -0.484800
vn 0.003600 1.000000 -0.004800
vn 0.004400 1.000000 -0.003500
vn 0.499000 0.814800 -0.295100
vn 0.000200 1.000000 -0.000300
vn 0.049300 0.792800 -0.607500
vn 0.000700 1.000000 -0.007200
vn 0.002000 1.000000 -0.006100
vn 0.119700 0.819800 -0.559900
vn -0.349300 0.777600 -0.522800
vn -0.006100 0.999900 -0.007900
vn -0.000400 1.000000 -0.007100
vn -0.024000 0.826300 -0.562700
vn -0.519600 0.831900 -0.194800
vn -0.005100 1.000000 -0.001900
vn -0.006000 1.000000 -0.002700
vn -0.514900 0.835500 -0.191700
vn -0.604900 0.792400 0.078800
vn -0.007500 1.000000 0.001900
vn -0.005600 1.000000 -0.002000
vn -0.543000 0.816300 -0.197000
vn -0.006100 0.999900 0.007600
vn -0.348400 0.868600 0.352300
vn -0.761200 -0.639900 0.104900
vn -0.013400 -0.999900 0.002500
vn -0.003300 -0.999900 0.007200
vn -0.508000 -0.708300 0.490100
vn 0.003100 -1.000000 -0.000700
vn -0.002700 -1.000000 0.003200
vn -0.435200 -0.648400 0.624600
vn -0.642400 -0.734200 -0.219600
vn -0.005600 -1.000000 -0.002000
vn -0.005100 -1.000000 -0.005800
vn -0.649500 -0.719200 -0.246700
vn -0.494500 -0.564200 -0.661200
vn -0.000600 -1.000000 -0.000200
vn -0.004400 -1.000000 -0.000500
vn -0.680100 -0.692700 -0.239900
vn 0.000000 -1.000000 0.000100
vn 0.068800 -0.728100 -0.682000
vn -0.001800 -0.999900 0.012600
vn -0.002500 -1.000000 0.004900
vn -0.017400 -0.665600 -0.746100
vn 0.439500 -0.692200 -0.572400
vn 0.009700 -0.999900 -0.004300
vn 0.001600 -1.000000 0.006200
vn 0.126900 -0.759100 -0.638500
vn -0.000600 -1.000000 0.000300
vn 0.549800 -0.771000 -0.321400
vn 0.008000 -0.999900 -0.006100
vn 0.011500 -0.999900 -0.006100
vn 0.550700 -0.774200 -0.311900
vn 0.690800 -0.719500 -0.071100
vn -0.011600 -0.999900 0.001300
vn -0.000900 -1.000000 -0.003000
vn 0.570200 -0.766700 -0.294800
vn 0.577700 -0.618900 0.532100
vn 0.005200 -1.000000 0.004100
vn -0.001600 -1.000000 0.003000
vn 0.669600 -0.718500 0.188100
vn 0.010100 -0.661600 0.749800
vn 0.000500 -1.000000 0.005300
vn 0.002300 -1.000000 0.005000
vn 0.291900 -0.704400 0.647000
vn -0.001300 -1.000000 0.003400
vn -0.288700 -0.737700 0.610200
vn 0.000000 1.000000 -0.000200
vn 0.000100 1.000000 -0.000000
vn 0.000100 1.000000 0.000100
usemtl defaultMat
s 1
f 1/1/1 2/2/2 3/3/3 4/4/4
f 5/5/5 6/6/6 3/3/3 2/2/2
f 7/7/4 8/8/4 3/3/3 6/6/6
f 9/9/4 4/4/4 3/3/3 8/8/4
f 10/10/7 11/11/8 12/12/9 13/13/9
f 14/14/9 15/15/9 12/12/9 11/11/8
f 16/16/10 17/17/11 12/12/9 15/15/9
f 18/18/12 13/13/9 12/12/9 17/17/11
f 183/19/13 20/20/14 21/21/15 191/22/16
f 172/23/17 165/24/18 21/21/15 20/20/14
f 156/25/19 26/26/20 21/21/15 165/24/18
f 186/27/21 191/22/16 21/21/15 26/26/20
f 177/28/22 29/29/23 30/30/24 188/31/25
f 168/32/26 162/33/27 30/30/24 29/29/23
f 172/23/17 20/20/14 30/30/24 162/33/27
f 183/19/13 188/31/25 30/30/24 20/20/14
f 182/34/28 35/35/29 36/36/30 192/37/31
f 159/38/32 166/39/33 36/36/30 35/35/29
f 168/32/26 29/29/23 36/40/30 166/41/33
f 177/28/22 192/42/31 36/40/30 29/29/23
f 190/43/34 41/44/35 42/45/36 179/46/37
f 170/47/38 174/48/39 42/45/36 41/44/35
f 163/49/40 47/50/41 42/45/36 174/48/39
f 185/51/42 179/46/37 42/45/36 47/50/41
f 181/52/43 50/53/44 51/54/45 187/55/46
f 155/56/47 160/57/48 51/54/45 50/53/44
f 173/58/49 56/59/50 51/60/45 160/61/48
f 194/62/51 187/63/46 51/60/45 56/59/50
f 184/64/52 59/65/53 60/66/54 175/67/55
f 161/68/56 169/69/57 60/66/54 59/65/53
f 155/56/47 50/53/44 60/66/54 169/69/57
f 181/52/43 175/67/55 60/66/54 50/53/44
f 176/70/58 65/71/59 66/72/60 193/73/61
f 171/74/62 164/75/63 66/72/60 65/71/59
f 161/68/56 59/65/53 66/72/60 164/75/63
f 184/64/52 193/73/61 66/72/60 59/65/53
f 186/76/21 26/77/20 70/78/64 189/79/65
f 156/80/19 158/81/66 70/78/64 26/77/20
f 171/82/62 65/83/59 70/78/64 158/81/66
f 176/84/58 189/79/65 70/78/64 65/83/59
f 159/38/32 35/35/29 73/85/67 157/86/68
f 182/34/28 178/87/69 73/85/67 35/35/29
f 185/51/42 47/50/41 73/85/67 178/87/69
f 163/49/40 157/86/68 73/85/67 47/50/41
f 194/62/51 56/59/50 76/88/70 180/89/71
f 173/58/49 167/90/72 76/88/70 56/59/50
f 170/47/38 41/44/35 76/88/70 167/90/72
f 190/43/34 180/89/71 76/88/70 41/44/35
f 23/91/73 79/92/74 80/93/75 24/94/76
f 81/95/4 82/96/4 80/93/75 79/92/74
f 83/97/4 84/98/77 80/93/75 82/96/4
f 25/99/78 24/94/76 80/93/75 84/98/77
f 32/100/79 85/101/80 86/102/81 33/103/82
f 87/104/4 88/105/4 86/102/81 85/101/80
f 81/95/4 79/92/74 86/102/81 88/105/4
f 23/91/73 33/103/82 86/102/81 79/92/74
f 38/106/83 89/107/84 90/108/85 39/109/86
f 91/110/87 92/111/4 90/108/85 89/107/84
f 87/104/4 85/101/80 90/108/85 92/111/4
f 32/100/79 39/109/86 90/108/85 85/101/80
f 46/112/88 93/113/89 94/114/90 74/115/91
f 95/116/92 96/117/93 94/114/90 93/113/89
f 91/110/87 89/107/84 94/114/90 96/117/93
f 38/106/83 74/115/91 94/114/90 89/107/84
f 44/118/94 97/119/95 98/120/96 45/121/97
f 1/1/1 99/122/98 98/120/96 97/119/95
f 95/116/92 93/113/89 98/120/96 99/122/98
f 46/112/88 45/121/97 98/120/96 93/113/89
f 55/123/99 100/124/100 101/125/101 78/126/102
f 5/5/5 2/2/2 101/125/101 100/124/100
f 1/1/1 97/119/95 101/125/101 2/2/2
f 44/118/94 78/126/102 101/125/101 97/119/95
f 53/127/103 102/128/104 103/129/105 54/130/106
f 7/7/4 6/6/6 103/129/105 102/128/104
f 5/5/5 100/124/100 103/129/105 6/6/6
f 55/123/99 54/130/106 103/129/105 100/124/100
f 62/131/107 104/132/108 105/133/109 63/134/110
f 9/9/4 8/8/4 105/133/109 104/132/108
f 7/7/4 102/128/104 105/133/109 8/8/4
f 53/127/103 63/134/110 105/133/109 102/128/104
f 68/135/111 106/136/112 107/137/113 69/138/114
f 108/139/4 109/140/4 107/137/113 106/136/112
f 9/9/4 104/132/108 107/137/113 109/140/4
f 62/131/107 69/138/114 107/137/113 104/132/108
f 25/99/78 84/98/77 110/141/115 72/142/116
f 83/97/4 111/143/4 110/141/115 84/98/77
f 108/139/4 106/136/112 110/141/115 111/143/4
f 68/135/111 72/142/116 110/141/115 106/136/112
f 64/144/117 112/145/118 113/146/119 71/147/120
f 10/10/7 114/148/121 113/146/119 112/145/118
f 115/149/9 116/150/122 113/146/119 114/148/121
f 27/151/123 71/147/120 113/146/119 116/150/122
f 58/152/124 117/153/125 118/154/126 67/155/127
f 14/14/9 11/11/8 118/154/126 117/153/125
f 10/10/7 112/145/118 118/154/126 11/11/8
f 64/144/117 67/155/127 118/154/126 112/145/118
f 49/156/128 119/157/129 120/158/130 61/159/131
f 121/160/132 122/161/9 120/158/130 119/157/129
f 14/14/9 117/153/125 120/158/130 122/161/9
f 58/152/124 61/159/131 120/158/130 117/153/125
f 57/162/133 123/163/134 124/164/135 52/165/136
f 125/166/9 126/167/9 124/164/135 123/163/134
f 121/160/132 119/157/129 124/164/135 126/167/9
f 49/156/128 52/165/136 124/164/135 119/157/129
f 40/168/137 127/169/138 128/170/139 77/171/140
f 16/16/10 129/172/141 128/170/139 127/169/138
f 125/166/9 123/163/134 128/170/139 129/172/141
f 57/162/133 77/171/140 128/170/139 123/163/134
f 48/173/142 130/174/143 131/175/144 43/176/145
f 18/18/12 17/17/11 131/175/144 130/174/143
f 16/16/10 127/169/138 131/175/144 17/17/11
f 40/168/137 43/176/145 131/175/144 127/169/138
f 34/177/146 132/178/147 133/179/148 75/180/149
f 134/181/9 135/182/132 133/179/148 132/178/147
f 18/18/12 130/174/143 133/179/148 135/182/132
f 48/173/142 75/180/149 133/179/148 130/174/143
f 28/183/150 136/184/151 137/185/152 37/186/153
f 138/187/9 139/188/9 137/185/152 136/184/151
f 134/181/9 132/178/147 137/185/152 139/188/9
f 34/177/146 37/186/153 137/185/152 132/178/147
f 19/189/154 140/190/155 141/191/156 31/192/157
f 142/193/9 143/194/9 141/191/156 140/190/155
f 138/187/9 136/184/151 141/191/156 143/194/9
f 28/183/150 31/192/157 141/191/156 136/184/151
f 27/151/123 116/150/122 144/195/158 22/196/159
f 115/149/9 145/197/9 144/195/158 116/150/122
f 142/193/9 140/190/155 144/195/158 145/197/9
f 19/189/154 22/196/159 144/195/158 140/190/155
f 14/14/9 122/161/9 146/198/9 15/15/9
f 121/160/132 126/167/9 146/198/9 122/161/9
f 125/166/9 129/172/141 146/198/9 126/167/9
f 16/16/10 15/15/9 146/198/9 129/172/141
f 10/10/7 13/13/9 147/199/9 114/148/121
f 18/18/12 135/182/132 147/199/9 13/13/9
f 134/181/9 148/200/9 147/199/9 135/182/132
f 115/149/9 114/148/121 147/199/9 148/200/9
f 134/181/9 139/188/9 149/201/9 148/200/9
f 138/187/9 143/194/9 149/201/9 139/188/9
f 142/193/9 145/197/9 149/201/9 143/194/9
f 115/149/9 148/200/9 149/201/9 145/197/9
f 81/95/4 88/105/4 150/202/4 82/96/4
f 87/104/4 92/111/4 150/202/4 88/105/4
f 91/110/87 151/203/4 150/202/4 92/111/4
f 83/97/4 82/96/4 150/202/4 151/203/4
f 91/110/87 96/117/93 152/204/160 151/203/4
f 95/116/92 153/205/161 152/204/160 96/117/93
f 108/139/4 111/143/4 152/204/160 153/205/161
f 83/97/4 151/203/4 152/204/160 111/143/4
f 95/116/92 99/122/98 154/206/162 153/205/161
f 1/1/1 4/4/4 154/206/162 99/122/98
f 9/9/4 109/140/4 154/206/162 4/4/4
f 108/139/4 153/205/161 154/206/162 109/140/4
f 44/207/94 170/47/38 167/90/72 78/208/102
f 55/209/99 78/208/102 167/90/72 173/58/49
f 46/210/88 74/211/91 157/86/68 163/49/40
f 38/212/83 159/38/32 157/86/68 74/211/91
f 68/213/111 171/82/62 158/81/66 72/214/116
f 25/215/78 72/214/116 158/81/66 156/80/19
f 62/216/107 161/68/56 164/75/63 69/217/114
f 68/218/111 69/217/114 164/75/63 171/74/62
f 53/219/103 155/56/47 169/69/57 63/220/110
f 62/216/107 63/220/110 169/69/57 161/68/56
f 55/209/99 173/58/49 160/61/48 54/221/106
f 53/219/103 54/222/106 160/57/48 155/56/47
f 46/210/88 163/49/40 174/48/39 45/223/97
f 44/207/94 45/223/97 174/48/39 170/47/38
f 32/224/79 168/32/26 166/41/33 39/225/86
f 38/212/83 39/226/86 166/39/33 159/38/32
f 23/227/73 172/23/17 162/33/27 33/228/82
f 32/224/79 33/228/82 162/33/27 168/32/26
f 25/229/78 156/25/19 165/24/18 24/230/76
f 23/227/73 24/230/76 165/24/18 172/23/17
f 40/231/137 77/232/140 180/89/71 190/43/34
f 57/233/133 194/62/51 180/89/71 77/232/140
f 48/234/142 185/51/42 178/87/69 75/235/149
f 34/236/146 75/235/149 178/87/69 182/34/28
f 64/237/117 71/238/120 189/79/65 176/84/58
f 27/239/123 186/76/21 189/79/65 71/238/120
f 58/240/124 67/241/127 193/73/61 184/64/52
f 64/242/117 176/70/58 193/73/61 67/241/127
f 49/243/128 61/244/131 175/67/55 181/52/43
f 58/240/124 184/64/52 175/67/55 61/244/131
f 57/233/133 52/245/136 187/63/46 194/62/51
f 49/243/128 181/52/43 187/55/46 52/246/136
f 48/234/142 43/247/145 179/46/37 185/51/42
f 40/231/137 190/43/34 179/46/37 43/247/145
f 28/248/150 37/249/153 192/42/31 177/28/22
f 34/236/146 182/34/28 192/37/31 37/250/153
f 19/251/154 31/252/157 188/31/25 183/19/13
f 28/248/150 177/28/22 188/31/25 31/252/157
f 27/253/123 22/254/159 191/22/16 186/27/21
f 19/251/154 183/19/13 191/22/16 22/254/159
