# Blender v2.75 (sub 0) OBJ File: 'souls-spikes.blend'
# www.blender.org
mtllib EN_SoulsSpikes_01_SM.mtl
o Circle
v 0.819334 0.214974 -0.109311
v 0.742040 0.214974 -0.077295
v 0.710023 0.214974 -0.000000
v 0.742040 0.214974 0.077295
v 0.819334 0.214974 0.109311
v 0.896629 0.214974 0.077295
v 0.928645 0.214974 -0.000000
v 0.896629 0.214974 -0.077295
v 0.936623 0.518506 -0.109311
v 0.861730 0.499392 -0.077295
v 0.830707 0.491475 -0.000000
v 0.861730 0.499392 0.077295
v 0.936623 0.518506 0.109311
v 1.011517 0.537620 0.077295
v 1.042539 0.545537 -0.000000
v 1.011517 0.537620 -0.077295
v 0.654274 1.065743 -0.020247
v 0.640767 1.060996 -0.014317
v 0.635172 1.059030 0.000000
v 0.640767 1.060996 0.014317
v 0.654274 1.065743 0.020247
v 0.667781 1.070490 0.014317
v 0.673376 1.072456 0.000000
v 0.667781 1.070490 -0.014317
v 0.896982 0.818554 -0.066186
v 0.938321 0.840493 -0.046801
v 0.955445 0.849581 0.000000
v 0.938321 0.840493 0.046801
v 0.896982 0.818554 0.066186
v 0.855642 0.796615 0.046801
v 0.838518 0.787527 0.000000
v 0.855642 0.796615 -0.046801
v -0.109311 0.214974 -0.819334
v -0.077295 0.214974 -0.742040
v 0.000000 0.214974 -0.710023
v 0.077295 0.214974 -0.742040
v 0.109311 0.214974 -0.819334
v 0.077295 0.214974 -0.896629
v 0.000000 0.214974 -0.928645
v -0.077295 0.214974 -0.896629
v -0.109311 0.518506 -0.936623
v -0.077295 0.499392 -0.861730
v 0.000000 0.491475 -0.830707
v 0.077295 0.499392 -0.861730
v 0.109311 0.518506 -0.936623
v 0.077295 0.537620 -1.011517
v 0.000000 0.545537 -1.042539
v -0.077294 0.537620 -1.011517
v -0.020247 1.065743 -0.654274
v -0.014317 1.060996 -0.640767
v 0.000000 1.059030 -0.635172
v 0.014317 1.060996 -0.640767
v 0.020247 1.065743 -0.654274
v 0.014317 1.070490 -0.667781
v 0.000000 1.072456 -0.673376
v -0.014317 1.070490 -0.667781
v -0.066186 0.818554 -0.896982
v -0.046801 0.840493 -0.938321
v 0.000000 0.849581 -0.955445
v 0.046801 0.840493 -0.938321
v 0.066186 0.818554 -0.896982
v 0.046801 0.796615 -0.855642
v 0.000000 0.787527 -0.838518
v -0.046801 0.796615 -0.855642
v -0.819334 0.214974 0.109311
v -0.742040 0.214974 0.077294
v -0.710023 0.214974 -0.000000
v -0.742040 0.214974 -0.077295
v -0.819334 0.214974 -0.109311
v -0.896629 0.214974 -0.077295
v -0.928645 0.214974 -0.000000
v -0.896629 0.214974 0.077294
v -0.936623 0.518506 0.109311
v -0.861730 0.499392 0.077294
v -0.830707 0.491475 -0.000000
v -0.861730 0.499392 -0.077295
v -0.936623 0.518506 -0.109311
v -1.011517 0.537620 -0.077295
v -1.042539 0.545537 -0.000000
v -1.011517 0.537620 0.077294
v -0.654274 1.065743 0.020247
v -0.640767 1.060996 0.014317
v -0.635172 1.059030 -0.000000
v -0.640767 1.060996 -0.014317
v -0.654274 1.065743 -0.020247
v -0.667781 1.070490 -0.014317
v -0.673376 1.072456 -0.000000
v -0.667781 1.070490 0.014317
v -0.896982 0.818554 0.066186
v -0.938321 0.840493 0.046801
v -0.955445 0.849581 -0.000000
v -0.938321 0.840493 -0.046801
v -0.896982 0.818554 -0.066186
v -0.855642 0.796615 -0.046801
v -0.838518 0.787527 -0.000000
v -0.855642 0.796615 0.046801
v 0.109311 0.214974 0.819334
v 0.077294 0.214974 0.742040
v -0.000000 0.214974 0.710023
v -0.077295 0.214974 0.742040
v -0.109311 0.214974 0.819334
v -0.077295 0.214974 0.896629
v -0.000000 0.214974 0.928645
v 0.077294 0.214974 0.896629
v 0.109311 0.518506 0.936623
v 0.077294 0.499392 0.861730
v -0.000000 0.491475 0.830707
v -0.077295 0.499392 0.861730
v -0.109311 0.518506 0.936623
v -0.077295 0.537620 1.011517
v -0.000000 0.545537 1.042539
v 0.077294 0.537620 1.011517
v 0.020247 1.065743 0.654274
v 0.014317 1.060996 0.640767
v -0.000000 1.059030 0.635172
v -0.014317 1.060996 0.640767
v -0.020248 1.065743 0.654274
v -0.014317 1.070490 0.667781
v -0.000000 1.072456 0.673376
v 0.014317 1.070490 0.667781
v 0.066186 0.818554 0.896982
v 0.046801 0.840493 0.938321
v -0.000000 0.849581 0.955445
v -0.046801 0.840493 0.938321
v -0.066187 0.818554 0.896982
v -0.046801 0.796615 0.855642
v -0.000000 0.787527 0.838518
v 0.046801 0.796615 0.855642
v 0.370748 0.192181 -0.446865
v 0.345713 0.192181 -0.386425
v 0.370748 0.192181 -0.325985
v 0.431188 0.192181 -0.300950
v 0.491627 0.192181 -0.325985
v 0.516662 0.192181 -0.386425
v 0.491627 0.192181 -0.446865
v 0.431188 0.192181 -0.471900
v 0.435599 0.429524 -0.511716
v 0.411891 0.414578 -0.452603
v 0.437476 0.408388 -0.392713
v 0.497366 0.414578 -0.367129
v 0.556478 0.429524 -0.390836
v 0.580186 0.444470 -0.449949
v 0.554601 0.450661 -0.509838
v 0.494711 0.444470 -0.535423
v 0.328728 0.857430 -0.306356
v 0.324539 0.853719 -0.295608
v 0.329362 0.852181 -0.284599
v 0.340371 0.853719 -0.279776
v 0.351119 0.857430 -0.283966
v 0.355308 0.861142 -0.294713
v 0.350485 0.862680 -0.305722
v 0.339476 0.861142 -0.310545
v 0.437525 0.664144 -0.465953
v 0.471101 0.681299 -0.478092
v 0.506445 0.688405 -0.461683
v 0.522854 0.681299 -0.426338
v 0.510716 0.664144 -0.392762
v 0.477140 0.646989 -0.380623
v 0.441795 0.639883 -0.397032
v 0.425386 0.646989 -0.432377
v -0.446865 0.192181 -0.370748
v -0.386425 0.192181 -0.345713
v -0.325985 0.192181 -0.370748
v -0.300950 0.192181 -0.431188
v -0.325985 0.192181 -0.491627
v -0.386425 0.192181 -0.516662
v -0.446865 0.192181 -0.491627
v -0.471900 0.192181 -0.431188
v -0.511716 0.429524 -0.435599
v -0.452603 0.414578 -0.411891
v -0.392713 0.408388 -0.437476
v -0.367129 0.414578 -0.497366
v -0.390836 0.429524 -0.556478
v -0.449948 0.444470 -0.580186
v -0.509838 0.450661 -0.554601
v -0.535423 0.444470 -0.494711
v -0.306356 0.857430 -0.328728
v -0.295608 0.853719 -0.324539
v -0.284599 0.852181 -0.329362
v -0.279776 0.853719 -0.340371
v -0.283966 0.857430 -0.351119
v -0.294713 0.861142 -0.355308
v -0.305722 0.862680 -0.350485
v -0.310545 0.861142 -0.339476
v -0.465953 0.664144 -0.437525
v -0.478092 0.681299 -0.471101
v -0.461683 0.688405 -0.506445
v -0.426338 0.681299 -0.522854
v -0.392762 0.664144 -0.510716
v -0.380623 0.646989 -0.477140
v -0.397032 0.639883 -0.441795
v -0.432377 0.646989 -0.425386
v -0.370748 0.192181 0.446865
v -0.345713 0.192181 0.386425
v -0.370748 0.192181 0.325985
v -0.431188 0.192181 0.300950
v -0.491627 0.192181 0.325985
v -0.516662 0.192181 0.386425
v -0.491627 0.192181 0.446865
v -0.431188 0.192181 0.471900
v -0.435599 0.429524 0.511716
v -0.411892 0.414578 0.452603
v -0.437476 0.408388 0.392713
v -0.497366 0.414578 0.367129
v -0.556478 0.429524 0.390836
v -0.580186 0.444470 0.449948
v -0.554601 0.450661 0.509838
v -0.494711 0.444470 0.535423
v -0.328728 0.857430 0.306356
v -0.324539 0.853719 0.295608
v -0.329362 0.852181 0.284599
v -0.340371 0.853719 0.279776
v -0.351119 0.857430 0.283966
v -0.355308 0.861142 0.294713
v -0.350485 0.862680 0.305722
v -0.339476 0.861142 0.310545
v -0.437525 0.664144 0.465953
v -0.471101 0.681299 0.478092
v -0.506445 0.688405 0.461683
v -0.522854 0.681299 0.426338
v -0.510716 0.664144 0.392762
v -0.477140 0.646989 0.380623
v -0.441795 0.639883 0.397032
v -0.425386 0.646989 0.432377
v 0.446865 0.192181 0.370748
v 0.386425 0.192181 0.345713
v 0.325985 0.192181 0.370748
v 0.300950 0.192181 0.431188
v 0.325985 0.192181 0.491627
v 0.386425 0.192181 0.516662
v 0.446865 0.192181 0.491627
v 0.471900 0.192181 0.431188
v 0.511715 0.429524 0.435599
v 0.452603 0.414578 0.411892
v 0.392713 0.408388 0.437476
v 0.367129 0.414578 0.497366
v 0.390836 0.429524 0.556478
v 0.449948 0.444470 0.580186
v 0.509838 0.450661 0.554601
v 0.535423 0.444470 0.494711
v 0.306356 0.857430 0.328729
v 0.295608 0.853719 0.324539
v 0.284599 0.852181 0.329362
v 0.279776 0.853719 0.340371
v 0.283966 0.857430 0.351119
v 0.294713 0.861142 0.355308
v 0.305722 0.862680 0.350485
v 0.310545 0.861142 0.339476
v 0.465953 0.664144 0.437525
v 0.478092 0.681299 0.471101
v 0.461682 0.688405 0.506446
v 0.426338 0.681299 0.522855
v 0.392762 0.664144 0.510716
v 0.380623 0.646989 0.477140
v 0.397032 0.639883 0.441795
v 0.432377 0.646989 0.425386
vn -0.095400 0.044000 -0.994400
vn 0.043500 0.039600 -0.998300
vn 0.731500 -0.008500 -0.681800
vn 0.658400 -0.235600 -0.714800
vn 0.999900 -0.009800 0.000000
vn 0.943800 -0.330500 0.000000
vn 0.731500 -0.008500 0.681800
vn 0.658400 -0.235600 0.714800
vn 0.043500 0.039600 0.998300
vn -0.095400 0.044000 0.994400
vn -0.685200 0.166000 0.709200
vn -0.727700 0.307300 0.613200
vn -0.972500 0.232700 0.000000
vn -0.919200 0.393900 0.000000
vn -0.685200 0.166000 -0.709200
vn -0.727700 0.307300 -0.613200
vn 0.014600 0.160300 -0.986900
vn -0.303000 0.593300 -0.745800
vn 0.110400 0.864700 -0.490000
vn 0.604100 0.440300 -0.664200
vn 0.257000 0.966400 0.000000
vn 0.834600 0.550900 0.000000
vn 0.110400 0.864700 0.490000
vn 0.604100 0.440300 0.664200
vn -0.303000 0.593300 0.745800
vn 0.014600 0.160300 0.986900
vn -0.773800 0.314000 0.550000
vn -0.648200 -0.149400 0.746600
vn -0.979500 0.201500 0.000000
vn -0.956600 -0.291500 0.000000
vn -0.773800 0.314000 -0.550000
vn -0.648200 -0.149400 -0.746600
vn -0.994400 0.044000 0.095400
vn -0.998300 0.039600 -0.043500
vn -0.681800 -0.008500 -0.731500
vn -0.714800 -0.235600 -0.658400
vn 0.000000 -0.009800 -0.999900
vn 0.000000 -0.330500 -0.943800
vn 0.681800 -0.008500 -0.731500
vn 0.714800 -0.235600 -0.658400
vn 0.998300 0.039600 -0.043500
vn 0.994400 0.044000 0.095400
vn 0.709200 0.166000 0.685200
vn 0.613200 0.307300 0.727700
vn 0.000000 0.232700 0.972500
vn 0.000000 0.393900 0.919200
vn -0.709200 0.166000 0.685200
vn -0.613200 0.307300 0.727700
vn -0.986900 0.160300 -0.014600
vn -0.745800 0.593300 0.303000
vn -0.490000 0.864700 -0.110400
vn -0.664200 0.440300 -0.604100
vn 0.000000 0.966400 -0.257000
vn 0.000000 0.550900 -0.834600
vn 0.490000 0.864700 -0.110400
vn 0.664200 0.440300 -0.604100
vn 0.745800 0.593300 0.303000
vn 0.986900 0.160300 -0.014600
vn 0.550000 0.314000 0.773800
vn 0.746600 -0.149400 0.648200
vn 0.000000 0.201500 0.979500
vn 0.000000 -0.291500 0.956600
vn -0.550000 0.314000 0.773800
vn -0.746600 -0.149400 0.648200
vn 0.095400 0.044000 0.994400
vn -0.043500 0.039600 0.998300
vn -0.731500 -0.008500 0.681800
vn -0.658400 -0.235600 0.714800
vn -0.999900 -0.009800 0.000000
vn -0.943800 -0.330500 0.000000
vn -0.731500 -0.008500 -0.681800
vn -0.658400 -0.235600 -0.714800
vn -0.043500 0.039600 -0.998300
vn 0.095400 0.044000 -0.994400
vn 0.685200 0.166000 -0.709200
vn 0.727700 0.307300 -0.613200
vn 0.972500 0.232700 0.000000
vn 0.919200 0.393900 0.000000
vn 0.685200 0.166000 0.709200
vn 0.727700 0.307300 0.613200
vn -0.014600 0.160300 0.986900
vn 0.303000 0.593300 0.745800
vn -0.110400 0.864700 0.490000
vn -0.604100 0.440300 0.664200
vn -0.257000 0.966400 0.000000
vn -0.834600 0.550900 0.000000
vn -0.110400 0.864700 -0.490000
vn -0.604100 0.440300 -0.664200
vn 0.303000 0.593300 -0.745800
vn -0.014600 0.160300 -0.986900
vn 0.773800 0.314000 -0.550000
vn 0.648200 -0.149400 -0.746600
vn 0.979500 0.201500 0.000000
vn 0.956600 -0.291500 0.000000
vn 0.773800 0.314000 0.550000
vn 0.648200 -0.149400 0.746600
vn 0.994400 0.044000 -0.095400
vn 0.998300 0.039600 0.043500
vn 0.681800 -0.008500 0.731500
vn 0.714800 -0.235600 0.658400
vn 0.000000 -0.009800 0.999900
vn 0.000000 -0.330500 0.943800
vn -0.681800 -0.008500 0.731500
vn -0.714800 -0.235600 0.658400
vn -0.998300 0.039600 0.043500
vn -0.994400 0.044000 -0.095400
vn -0.709200 0.166000 -0.685200
vn -0.613200 0.307300 -0.727700
vn 0.000000 0.232700 -0.972500
vn 0.000000 0.393900 -0.919200
vn 0.709200 0.166000 -0.685200
vn 0.613200 0.307300 -0.727700
vn 0.986900 0.160300 0.014600
vn 0.745800 0.593300 -0.303000
vn 0.490000 0.864700 0.110400
vn 0.664200 0.440300 0.604100
vn 0.000000 0.966400 0.257000
vn 0.000000 0.550900 0.834600
vn -0.490000 0.864700 0.110400
vn -0.664200 0.440300 0.604100
vn -0.745800 0.593300 -0.303000
vn -0.986900 0.160300 0.014600
vn -0.550000 0.314000 -0.773800
vn -0.746600 -0.149400 -0.648200
vn 0.000000 0.201500 -0.979500
vn 0.000000 -0.291500 -0.956600
vn 0.550000 0.314000 -0.773800
vn 0.746600 -0.149400 -0.648200
vn -0.770700 0.044000 -0.635700
vn -0.675100 0.039600 -0.736600
vn 0.035200 -0.008500 -0.999300
vn -0.039900 -0.235600 -0.971000
vn 0.707100 -0.009800 -0.707100
vn 0.667300 -0.330500 -0.667300
vn 0.999300 -0.008500 -0.035200
vn 0.971000 -0.235600 0.039900
vn 0.736600 0.039600 0.675100
vn 0.635700 0.044000 0.770700
vn 0.016900 0.166000 0.986000
vn -0.080900 0.307300 0.948100
vn -0.687700 0.232700 0.687700
vn -0.649900 0.393900 0.649900
vn -0.986000 0.166000 -0.016900
vn -0.948100 0.307300 0.080900
vn -0.687500 0.160300 -0.708200
vn -0.741600 0.593300 -0.313000
vn -0.268400 0.864700 -0.424500
vn -0.042500 0.440300 -0.896800
vn 0.181700 0.966400 -0.181700
vn 0.590100 0.550900 -0.590100
vn 0.424500 0.864700 0.268400
vn 0.896800 0.440300 0.042500
vn 0.313000 0.593300 0.741600
vn 0.708200 0.160300 0.687500
vn -0.158200 0.314000 0.936100
vn 0.069600 -0.149400 0.986300
vn -0.692600 0.201500 0.692600
vn -0.676400 -0.291500 0.676400
vn -0.936100 0.314000 0.158200
vn -0.986300 -0.149400 -0.069600
vn -0.635700 0.044000 0.770700
vn -0.736600 0.039600 0.675100
vn -0.999300 -0.008500 -0.035200
vn -0.971000 -0.235600 0.039900
vn -0.707100 -0.009800 -0.707100
vn -0.667300 -0.330500 -0.667300
vn -0.035200 -0.008500 -0.999300
vn 0.039900 -0.235600 -0.971000
vn 0.675100 0.039600 -0.736600
vn 0.770700 0.044000 -0.635700
vn 0.986000 0.166000 -0.016900
vn 0.948100 0.307300 0.080900
vn 0.687700 0.232700 0.687700
vn 0.649900 0.393900 0.649900
vn -0.016900 0.166000 0.986000
vn 0.080900 0.307300 0.948100
vn -0.708200 0.160300 0.687500
vn -0.313000 0.593300 0.741600
vn -0.424500 0.864700 0.268400
vn -0.896800 0.440300 0.042500
vn -0.181700 0.966400 -0.181700
vn -0.590100 0.550900 -0.590100
vn 0.268400 0.864700 -0.424500
vn 0.042500 0.440300 -0.896800
vn 0.741600 0.593300 -0.313000
vn 0.687500 0.160300 -0.708200
vn 0.936100 0.314000 0.158200
vn 0.986300 -0.149400 -0.069600
vn 0.692600 0.201500 0.692600
vn 0.676400 -0.291500 0.676400
vn 0.158200 0.314000 0.936100
vn -0.069600 -0.149400 0.986300
vn 0.770700 0.044000 0.635700
vn 0.675100 0.039600 0.736600
vn -0.035200 -0.008500 0.999300
vn 0.039900 -0.235600 0.971000
vn -0.707100 -0.009800 0.707100
vn -0.667300 -0.330500 0.667300
vn -0.999300 -0.008500 0.035200
vn -0.971000 -0.235600 -0.039900
vn -0.736600 0.039600 -0.675100
vn -0.635700 0.044000 -0.770700
vn -0.016900 0.166000 -0.986000
vn 0.080900 0.307300 -0.948100
vn 0.687700 0.232700 -0.687700
vn 0.649900 0.393900 -0.649900
vn 0.986000 0.166000 0.016900
vn 0.948100 0.307300 -0.080900
vn 0.687500 0.160300 0.708200
vn 0.741600 0.593300 0.313000
vn 0.268400 0.864700 0.424500
vn 0.042500 0.440300 0.896800
vn -0.181700 0.966400 0.181700
vn -0.590100 0.550900 0.590100
vn -0.424500 0.864700 -0.268400
vn -0.896800 0.440300 -0.042500
vn -0.313000 0.593300 -0.741600
vn -0.708200 0.160300 -0.687500
vn 0.158200 0.314000 -0.936100
vn -0.069600 -0.149400 -0.986300
vn 0.692600 0.201500 -0.692600
vn 0.676400 -0.291500 -0.676400
vn 0.936100 0.314000 -0.158200
vn 0.986300 -0.149400 0.069600
vn 0.635700 0.044000 -0.770700
vn 0.736600 0.039600 -0.675100
vn 0.999300 -0.008500 0.035200
vn 0.971000 -0.235600 -0.039900
vn 0.707100 -0.009800 0.707100
vn 0.667300 -0.330500 0.667300
vn 0.035200 -0.008500 0.999300
vn -0.039900 -0.235600 0.971000
vn -0.675100 0.039600 0.736600
vn -0.770700 0.044000 0.635700
vn -0.986000 0.166000 0.016900
vn -0.948100 0.307300 -0.080900
vn -0.687700 0.232700 -0.687700
vn -0.649900 0.393900 -0.649900
vn 0.016900 0.166000 -0.986000
vn -0.080900 0.307300 -0.948100
vn 0.708200 0.160300 -0.687500
vn 0.313000 0.593300 -0.741600
vn 0.424500 0.864700 -0.268400
vn 0.896800 0.440300 -0.042500
vn 0.181700 0.966400 0.181700
vn 0.590100 0.550900 0.590100
vn -0.268400 0.864700 0.424500
vn -0.042500 0.440300 0.896800
vn -0.741600 0.593300 0.313000
vn -0.687500 0.160300 0.708200
vn -0.936100 0.314000 -0.158200
vn -0.986300 -0.149400 0.069600
vn -0.692600 0.201500 -0.692600
vn -0.676400 -0.291500 -0.676400
vn -0.158200 0.314000 -0.936100
vn 0.069600 -0.149400 -0.986300
usemtl None
s 1
f 1//1 9//2 16//3 8//4
f 8//4 16//3 15//5 7//6
f 7//6 15//5 14//7 6//8
f 6//8 14//7 13//9 5//10
f 5//10 13//9 12//11 4//12
f 4//12 12//11 11//13 3//14
f 3//14 11//13 10//15 2//16
f 2//16 10//15 9//2 1//1
f 25//17 17//18 24//19 26//20
f 26//20 24//19 23//21 27//22
f 27//22 23//21 22//23 28//24
f 28//24 22//23 21//25 29//26
f 29//26 21//25 20//27 30//28
f 30//28 20//27 19//29 31//30
f 31//30 19//29 18//31 32//32
f 32//32 18//31 17//18 25//17
f 18//31 19//29 20//27 21//25 22//23 23//21 24//19 17//18
f 10//15 32//32 25//17 9//2
f 11//13 31//30 32//32 10//15
f 12//11 30//28 31//30 11//13
f 13//9 29//26 30//28 12//11
f 14//7 28//24 29//26 13//9
f 15//5 27//22 28//24 14//7
f 16//3 26//20 27//22 15//5
f 9//2 25//17 26//20 16//3
f 33//33 41//34 48//35 40//36
f 40//36 48//35 47//37 39//38
f 39//38 47//37 46//39 38//40
f 38//40 46//39 45//41 37//42
f 37//42 45//41 44//43 36//44
f 36//44 44//43 43//45 35//46
f 35//46 43//45 42//47 34//48
f 34//48 42//47 41//34 33//33
f 57//49 49//50 56//51 58//52
f 58//52 56//51 55//53 59//54
f 59//54 55//53 54//55 60//56
f 60//56 54//55 53//57 61//58
f 61//58 53//57 52//59 62//60
f 62//60 52//59 51//61 63//62
f 63//62 51//61 50//63 64//64
f 64//64 50//63 49//50 57//49
f 50//63 51//61 52//59 53//57 54//55 55//53 56//51 49//50
f 42//47 64//64 57//49 41//34
f 43//45 63//62 64//64 42//47
f 44//43 62//60 63//62 43//45
f 45//41 61//58 62//60 44//43
f 46//39 60//56 61//58 45//41
f 47//37 59//54 60//56 46//39
f 48//35 58//52 59//54 47//37
f 41//34 57//49 58//52 48//35
f 65//65 73//66 80//67 72//68
f 72//68 80//67 79//69 71//70
f 71//70 79//69 78//71 70//72
f 70//72 78//71 77//73 69//74
f 69//74 77//73 76//75 68//76
f 68//76 76//75 75//77 67//78
f 67//78 75//77 74//79 66//80
f 66//80 74//79 73//66 65//65
f 89//81 81//82 88//83 90//84
f 90//84 88//83 87//85 91//86
f 91//86 87//85 86//87 92//88
f 92//88 86//87 85//89 93//90
f 93//90 85//89 84//91 94//92
f 94//92 84//91 83//93 95//94
f 95//94 83//93 82//95 96//96
f 96//96 82//95 81//82 89//81
f 82//95 83//93 84//91 85//89 86//87 87//85 88//83 81//82
f 74//79 96//96 89//81 73//66
f 75//77 95//94 96//96 74//79
f 76//75 94//92 95//94 75//77
f 77//73 93//90 94//92 76//75
f 78//71 92//88 93//90 77//73
f 79//69 91//86 92//88 78//71
f 80//67 90//84 91//86 79//69
f 73//66 89//81 90//84 80//67
f 97//97 105//98 112//99 104//100
f 104//100 112//99 111//101 103//102
f 103//102 111//101 110//103 102//104
f 102//104 110//103 109//105 101//106
f 101//106 109//105 108//107 100//108
f 100//108 108//107 107//109 99//110
f 99//110 107//109 106//111 98//112
f 98//112 106//111 105//98 97//97
f 121//113 113//114 120//115 122//116
f 122//116 120//115 119//117 123//118
f 123//118 119//117 118//119 124//120
f 124//120 118//119 117//121 125//122
f 125//122 117//121 116//123 126//124
f 126//124 116//123 115//125 127//126
f 127//126 115//125 114//127 128//128
f 128//128 114//127 113//114 121//113
f 114//127 115//125 116//123 117//121 118//119 119//117 120//115 113//114
f 106//111 128//128 121//113 105//98
f 107//109 127//126 128//128 106//111
f 108//107 126//124 127//126 107//109
f 109//105 125//122 126//124 108//107
f 110//103 124//120 125//122 109//105
f 111//101 123//118 124//120 110//103
f 112//99 122//116 123//118 111//101
f 105//98 121//113 122//116 112//99
f 129//129 137//130 144//131 136//132
f 136//132 144//131 143//133 135//134
f 135//134 143//133 142//135 134//136
f 134//136 142//135 141//137 133//138
f 133//138 141//137 140//139 132//140
f 132//140 140//139 139//141 131//142
f 131//142 139//141 138//143 130//144
f 130//144 138//143 137//130 129//129
f 153//145 145//146 152//147 154//148
f 154//148 152//147 151//149 155//150
f 155//150 151//149 150//151 156//152
f 156//152 150//151 149//153 157//154
f 157//154 149//153 148//155 158//156
f 158//156 148//155 147//157 159//158
f 159//158 147//157 146//159 160//160
f 160//160 146//159 145//146 153//145
f 146//159 147//157 148//155 149//153 150//151 151//149 152//147 145//146
f 138//143 160//160 153//145 137//130
f 139//141 159//158 160//160 138//143
f 140//139 158//156 159//158 139//141
f 141//137 157//154 158//156 140//139
f 142//135 156//152 157//154 141//137
f 143//133 155//150 156//152 142//135
f 144//131 154//148 155//150 143//133
f 137//130 153//145 154//148 144//131
f 161//161 169//162 176//163 168//164
f 168//164 176//163 175//165 167//166
f 167//166 175//165 174//167 166//168
f 166//168 174//167 173//169 165//170
f 165//170 173//169 172//171 164//172
f 164//172 172//171 171//173 163//174
f 163//174 171//173 170//175 162//176
f 162//176 170//175 169//162 161//161
f 185//177 177//178 184//179 186//180
f 186//180 184//179 183//181 187//182
f 187//182 183//181 182//183 188//184
f 188//184 182//183 181//185 189//186
f 189//186 181//185 180//187 190//188
f 190//188 180//187 179//189 191//190
f 191//190 179//189 178//191 192//192
f 192//192 178//191 177//178 185//177
f 178//191 179//189 180//187 181//185 182//183 183//181 184//179 177//178
f 170//175 192//192 185//177 169//162
f 171//173 191//190 192//192 170//175
f 172//171 190//188 191//190 171//173
f 173//169 189//186 190//188 172//171
f 174//167 188//184 189//186 173//169
f 175//165 187//182 188//184 174//167
f 176//163 186//180 187//182 175//165
f 169//162 185//177 186//180 176//163
f 193//193 201//194 208//195 200//196
f 200//196 208//195 207//197 199//198
f 199//198 207//197 206//199 198//200
f 198//200 206//199 205//201 197//202
f 197//202 205//201 204//203 196//204
f 196//204 204//203 203//205 195//206
f 195//206 203//205 202//207 194//208
f 194//208 202//207 201//194 193//193
f 217//209 209//210 216//211 218//212
f 218//212 216//211 215//213 219//214
f 219//214 215//213 214//215 220//216
f 220//216 214//215 213//217 221//218
f 221//218 213//217 212//219 222//220
f 222//220 212//219 211//221 223//222
f 223//222 211//221 210//223 224//224
f 224//224 210//223 209//210 217//209
f 210//223 211//221 212//219 213//217 214//215 215//213 216//211 209//210
f 202//207 224//224 217//209 201//194
f 203//205 223//222 224//224 202//207
f 204//203 222//220 223//222 203//205
f 205//201 221//218 222//220 204//203
f 206//199 220//216 221//218 205//201
f 207//197 219//214 220//216 206//199
f 208//195 218//212 219//214 207//197
f 201//194 217//209 218//212 208//195
f 225//225 233//226 240//227 232//228
f 232//228 240//227 239//229 231//230
f 231//230 239//229 238//231 230//232
f 230//232 238//231 237//233 229//234
f 229//234 237//233 236//235 228//236
f 228//236 236//235 235//237 227//238
f 227//238 235//237 234//239 226//240
f 226//240 234//239 233//226 225//225
f 249//241 241//242 248//243 250//244
f 250//244 248//243 247//245 251//246
f 251//246 247//245 246//247 252//248
f 252//248 246//247 245//249 253//250
f 253//250 245//249 244//251 254//252
f 254//252 244//251 243//253 255//254
f 255//254 243//253 242//255 256//256
f 256//256 242//255 241//242 249//241
f 242//255 243//253 244//251 245//249 246//247 247//245 248//243 241//242
f 234//239 256//256 249//241 233//226
f 235//237 255//254 256//256 234//239
f 236//235 254//252 255//254 235//237
f 237//233 253//250 254//252 236//235
f 238//231 252//248 253//250 237//233
f 239//229 251//246 252//248 238//231
f 240//227 250//244 251//246 239//229
f 233//226 249//241 250//244 240//227
