# Blender v2.74 (sub 0) OBJ File: 'slate_broken.blend'
# www.blender.org
mtllib EN_SlateBroken_01_SM.mtl
o polySurface8
v -0.373307 0.243859 0.644011
v -0.395776 0.243859 1.138170
v 0.173122 0.243859 1.023130
v 0.733641 0.243859 0.776697
v -0.794514 -0.243860 0.604774
v -0.903326 -0.243860 -0.160820
v -0.798633 -0.243859 -0.511437
v -0.523905 -0.243860 0.804972
v -1.532508 -0.243860 0.898033
v -0.829575 -0.243860 1.856562
v -0.775962 0.243859 1.728195
v -1.419376 0.243859 0.846335
v 0.268074 -0.243860 1.656761
v 0.236551 0.243859 1.542889
v 1.706917 -0.243860 1.216143
v 1.585880 0.243859 1.144962
v 1.147904 -0.243860 -0.106344
v 1.454344 -0.243859 -0.995146
v 1.347608 0.243859 -0.921034
v 1.064303 0.243859 -0.089615
v 1.055165 -0.243859 -1.667427
v -0.272619 -0.243859 -1.370975
v -0.246546 0.243860 -1.257505
v 0.981468 0.243860 -1.543438
v -1.507282 -0.243859 -1.553127
v -1.403375 0.243860 -1.439548
v -1.666631 -0.243860 -0.371197
v -1.544657 0.243859 -0.339153
v 0.554858 0.243859 0.086165
v 0.534112 0.243859 -0.537468
v 0.493690 0.243860 -0.898403
v -0.221101 0.243860 -0.879620
v -0.647332 0.243859 -0.794643
v -0.486682 0.243859 -0.136322
v -0.199590 -0.243859 -0.718550
v 0.539013 -0.243859 -0.987040
v 0.730020 -0.243860 -0.359549
v 0.785690 -0.243860 0.111742
v 0.958583 -0.243860 0.844093
v 0.191759 -0.243860 0.714708
vt 0.613747 0.153980
vt 0.602334 0.081041
vt 0.685954 0.088375
vt 0.770548 0.115349
vt 0.110829 0.332308
vt 0.107759 0.216852
vt 0.128552 0.166596
vt 0.146418 0.366603
vt 0.460141 0.641885
vt 0.478383 0.480762
vt 0.549460 0.498042
vt 0.532795 0.646180
vt 0.930026 0.589378
vt 0.910529 0.507449
vt 0.982026 0.494732
vt 1.000000 0.570448
vt 0.886861 0.374846
vt 0.959668 0.372534
vt 0.911853 0.215666
vt 0.915220 0.075288
vt 0.986209 0.092770
vt 0.982994 0.223922
vt 0.629324 0.480762
vt 0.621892 0.680567
vt 0.549460 0.677424
vt 0.556702 0.492569
vt 0.629324 0.863862
vt 0.556780 0.849102
vt 0.478298 1.000000
vt 0.464310 0.831673
vt 0.536689 0.823446
vt 0.549460 0.980370
vt 0.930189 0.000000
vt 1.000000 0.022901
vt 0.460141 0.141859
vt 0.537951 0.000000
vt 0.686455 0.010169
vt 0.886861 0.046122
vt 0.832395 0.238233
vt 0.756308 0.220868
vt 0.886861 0.356749
vt 0.763659 0.313757
vt 0.844580 0.455366
vt 0.763832 0.368004
vt 0.663455 0.433955
vt 0.660850 0.377449
vt 0.500307 0.480762
vt 0.598219 0.372134
vt 0.461785 0.319905
vt 0.610389 0.271704
vt 0.000000 0.363318
vt 0.001558 0.172695
vt 0.043843 0.000000
vt 0.218220 0.047958
vt 0.218006 0.146015
vt 0.413828 0.026471
vt 0.328516 0.118690
vt 0.460141 0.133002
vt 0.345659 0.215046
vt 0.401536 0.259704
vt 0.345923 0.285928
vt 0.460141 0.465433
vt 0.358744 0.397537
vt 0.246214 0.506431
vt 0.250708 0.365339
vt 0.085252 0.517476
vn -0.000000 1.000000 0.000000
vn 0.000000 -1.000000 -0.000000
vn 0.949800 0.132400 0.283600
vn -0.773600 -0.557700 0.300800
vn -0.322000 -0.498500 0.804900
vn -0.260400 0.707800 0.656700
vn -0.626200 0.741800 0.239900
vn 0.186200 -0.607700 0.772100
vn 0.148300 0.773400 0.616400
vn 0.798700 -0.463300 0.384000
vn 0.670000 0.678400 0.301600
vn 0.668000 -0.743900 -0.018800
vn 0.836900 -0.535900 -0.111500
vn 0.707400 0.705300 -0.046300
vn 0.538200 0.842600 -0.022000
vn 0.356000 -0.483900 -0.799500
vn -0.023000 -0.673600 -0.738800
vn -0.023800 0.818600 -0.573800
vn 0.270700 0.703200 -0.657400
vn -0.542200 -0.457300 -0.705000
vn -0.423900 0.692500 -0.583700
vn -0.809500 -0.587000 -0.013800
vn -0.643600 0.765400 -0.003100
usemtl initialShadingGroup
s 1
f 1/1/1 2/2/1 3/3/1 4/4/1
f 5/5/2 6/6/3 7/7/2 8/8/2
f 9/9/4 10/10/5 11/11/6 12/12/7
f 10/13/5 13/14/8 14/15/9 11/16/6
f 13/14/8 15/17/10 16/18/11 14/15/9
f 17/19/12 18/20/13 19/21/14 20/22/15
f 21/23/16 22/24/17 23/25/18 24/26/19
f 22/24/17 25/27/20 26/28/21 23/25/18
f 25/29/20 27/30/22 28/31/23 26/32/21
f 27/30/22 9/9/4 12/12/7 28/31/23
f 20/22/15 16/18/11 15/17/10 17/19/12
f 18/20/13 21/33/16 24/34/19 19/21/14
f 12/35/7 11/36/6 2/2/1 1/1/1
f 11/36/6 14/37/9 3/3/1 2/2/1
f 14/37/9 16/38/11 4/4/1 3/3/1
f 16/38/11 20/39/15 29/40/1 4/4/1
f 20/39/15 19/41/14 30/42/1 29/40/1
f 19/41/14 24/43/19 31/44/1 30/42/1
f 24/43/19 23/45/18 32/46/1 31/44/1
f 23/45/18 26/47/21 33/48/1 32/46/1
f 26/47/21 28/49/23 34/50/1 33/48/1
f 28/49/23 12/35/7 1/1/1 34/50/1
f 9/51/4 27/52/22 6/6/3 5/5/2
f 27/52/22 25/53/20 7/7/2 6/6/3
f 25/53/20 22/54/17 35/55/2 7/7/2
f 22/54/17 21/56/16 36/57/2 35/55/2
f 21/56/16 18/58/13 37/59/2 36/57/2
f 18/58/13 17/60/12 38/61/2 37/59/2
f 17/60/12 15/62/10 39/63/2 38/61/2
f 15/62/10 13/64/8 40/65/2 39/63/2
f 13/64/8 10/66/5 8/8/2 40/65/2
f 10/66/5 9/51/4 5/5/2 8/8/2
f 8/8/2 7/7/2 35/55/2 40/65/2
f 40/65/2 35/55/2 36/57/2 37/59/2
f 40/65/2 37/59/2 38/61/2 39/63/2
f 1/1/1 4/4/1 29/40/1 34/50/1
f 34/50/1 29/40/1 30/42/1 33/48/1
f 33/48/1 30/42/1 31/44/1 32/46/1
