# Blender v2.74 (sub 0) OBJ File: 'slate_broken.blend'
# www.blender.org
mtllib EN_SlateBroken_02_SM.mtl
o polySurface7.001
v -0.618605 0.140846 -0.908302
v -0.169966 0.140846 -0.899129
v 0.060558 0.140846 -1.528134
v -0.281552 0.140846 -1.496212
v -0.148881 -0.140845 -0.937757
v -0.637622 -0.140845 -0.916278
v -0.257073 -0.140845 -1.446253
v 0.087042 -0.140845 -1.547028
v -0.936623 -0.140846 1.984445
v 0.198052 -0.140846 1.582339
v 0.194307 0.140845 1.525343
v -0.901947 0.140845 1.957990
v 1.249310 -0.140846 1.859909
v 1.213553 0.140845 1.818957
v 1.607547 -0.140846 0.827114
v 1.560782 0.140845 0.819810
v 0.391122 -0.140845 0.024447
v 0.109104 -0.140845 -1.138194
v 0.077258 0.140846 -1.100166
v 0.363074 0.140846 0.042856
v 0.511802 -0.140845 -1.890800
v -0.411058 -0.140845 -1.845998
v -0.383085 0.140846 -1.795447
v 0.500852 0.140846 -1.835357
v -1.014151 -0.140845 -1.120892
v -0.972256 0.140846 -1.088040
v -1.411097 -0.140845 -0.221675
v -1.366372 0.140846 -0.222035
v 0.182807 0.140845 1.277512
v -0.351475 0.140845 1.164143
v 0.802439 0.140845 1.247657
v 0.793471 0.140845 0.911549
v 0.046925 0.140845 0.114851
v -0.797790 0.140846 -0.021218
v -0.831675 -0.140845 -0.025501
v -0.372603 -0.140846 1.189461
v 0.069613 -0.140846 0.097918
v 0.825768 -0.140846 0.924154
v 0.833498 -0.140846 1.287268
v 0.184946 -0.140846 1.326715
vt 0.778991 0.143969
vt 0.703399 0.161987
vt 0.641710 0.062238
vt 0.700756 0.055193
vt 0.232908 0.532735
vt 0.316364 0.547115
vt 0.232710 0.624166
vt 0.170833 0.628768
vt 0.674148 0.680228
vt 0.674148 0.826807
vt 0.624660 0.831726
vt 0.625446 0.683064
vt 0.723634 0.774852
vt 0.724890 0.684901
vt 0.772925 0.680228
vt 0.772925 0.771469
vt 0.624660 0.680228
vt 0.624660 0.871756
vt 0.575449 0.869897
vt 0.575440 0.684561
vt 0.526419 0.683793
vt 0.521468 0.850333
vt 0.472476 0.843346
vt 0.477463 0.680228
vt 0.723634 0.680719
vt 0.723634 0.812492
vt 0.674204 0.806730
vt 0.950921 0.640289
vt 0.937535 0.536924
vt 0.986920 0.532386
vt 1.000000 0.633200
vt 0.930277 0.396305
vt 0.979615 0.397380
vt 0.951025 0.000000
vt 1.000000 0.005920
vt 0.526419 0.938876
vt 0.526590 0.687797
vt 0.575440 0.680228
vt 0.575440 0.936538
vt 0.526419 1.000000
vt 0.477734 0.991711
vt 0.930277 0.626621
vt 0.729160 0.592373
vt 0.722172 0.549321
vt 0.808501 0.510242
vt 0.567259 0.680228
vt 0.616235 0.566893
vt 0.472476 0.521087
vt 0.605635 0.508749
vt 0.647153 0.343552
vt 0.703251 0.344351
vt 0.654313 0.136466
vt 0.556123 0.025527
vt 0.707151 0.000000
vt 0.832360 0.100093
vt 0.930277 0.234613
vt 0.841296 0.289991
vt 0.472476 0.059422
vt 0.472476 0.456288
vt 0.381598 0.401131
vt 0.348144 0.175254
vt 0.372614 0.596220
vt 0.244214 0.698592
vt 0.086474 0.672169
vt 0.181975 0.557658
vt 0.176568 0.347324
vt 0.233627 0.346581
vt 0.000000 0.164331
vt 0.135776 0.176556
vt 0.098174 0.000000
vt 0.147679 0.113836
vt 0.265906 0.086600
vt 0.258823 0.131037
vn -0.000000 1.000000 0.000000
vn -0.000000 -1.000000 -0.000000
vn 0.348000 0.118600 0.930000
vn 0.043700 0.139700 0.989200
vn 0.045300 0.139700 0.989200
vn 0.471200 0.211400 0.856300
vn 0.437700 0.211000 0.874000
vn 0.942700 0.161700 -0.291900
vn 0.923800 0.158000 -0.348900
vn 0.809500 0.115400 -0.575600
vn 0.984500 0.053800 0.166700
vn 0.992800 0.067000 0.098900
vn 0.810700 0.115500 -0.574000
vn 0.795800 0.184600 -0.576700
vn -0.438300 0.203000 -0.875600
vn -0.434300 0.203000 -0.877600
vn 0.881300 0.166400 -0.442400
vn -0.755100 0.186700 -0.628500
vn -0.900500 0.161700 -0.403600
vn -0.987200 0.157200 0.025200
vn -0.987300 0.157300 0.022100
vn -0.967300 0.146200 0.207100
usemtl initialShadingGroup.003
s 1
f 1/1/1 2/2/1 3/3/1 4/4/1
f 5/5/2 6/6/2 7/7/2 8/8/2
f 9/9/3 10/10/4 11/11/5 12/12/3
f 10/13/4 13/14/6 14/15/7 11/16/5
f 13/17/6 15/18/8 16/19/9 14/20/7
f 17/21/10 18/22/11 19/23/12 20/24/13
f 21/25/14 22/26/15 23/27/16 24/9/17
f 22/28/15 25/29/18 26/30/18 23/31/16
f 25/29/19 27/32/20 28/33/21 26/30/19
f 27/32/20 9/34/22 12/35/22 28/33/21
f 20/36/13 16/37/9 15/38/8 17/39/10
f 18/22/11 21/40/14 24/41/17 19/23/12
f 12/42/1 11/43/1 29/44/1 30/45/1
f 11/43/1 14/46/1 31/47/1 29/44/1
f 14/46/1 16/48/1 32/49/1 31/47/1
f 16/48/1 20/50/1 33/51/1 32/49/1
f 20/50/1 19/52/1 2/2/1 33/51/1
f 19/52/1 24/53/1 3/3/1 2/2/1
f 24/53/1 23/54/1 4/4/1 3/3/1
f 23/54/1 26/55/1 1/1/1 4/4/1
f 26/55/1 28/56/1 34/57/1 1/1/1
f 28/56/1 12/42/1 30/45/1 34/57/1
f 9/58/2 27/59/2 35/60/2 36/61/2
f 27/59/2 25/62/2 6/6/2 35/60/2
f 25/62/2 22/63/2 7/7/2 6/6/2
f 22/63/2 21/64/2 8/8/2 7/7/2
f 21/64/2 18/65/2 5/5/2 8/8/2
f 18/65/2 17/66/2 37/67/2 5/5/2
f 17/66/2 15/68/2 38/69/2 37/67/2
f 15/68/2 13/70/2 39/71/2 38/69/2
f 13/70/2 10/72/2 40/73/2 39/71/2
f 10/72/2 9/58/2 36/61/2 40/73/2
f 34/57/1 33/51/1 2/2/1 1/1/1
f 30/45/1 32/49/1 33/51/1 34/57/1
f 30/45/1 29/44/1 31/47/1 32/49/1
f 37/67/2 35/60/2 6/6/2 5/5/2
f 36/61/2 35/60/2 37/67/2 38/69/2
f 36/61/2 38/69/2 39/71/2 40/73/2
