# Blender v2.75 (sub 0) OBJ File: 'woodclub.blend'
# www.blender.org
mtllib WP_Woodclub_02_SM.mtl
o Mesh_Cylinder
v 0.025494 1.122927 -0.068857
v -0.012243 0.100533 -0.057561
v 0.079694 1.118855 -0.033520
v 0.010082 0.102641 -0.058506
v -0.000014 1.157403 -0.069077
v 0.029725 0.103120 -0.045473
v -0.016807 1.129477 0.035692
v 0.043503 0.104838 -0.026853
v 0.100655 1.131533 0.028903
v 0.050080 0.105818 -0.006008
v 0.093213 1.118872 -0.016102
v 0.045840 0.106398 0.021730
v -0.044936 1.134004 -0.001095
v 0.032377 0.104996 0.041482
v -0.031779 1.132183 0.021405
v 0.011952 0.102768 0.053508
v 0.038130 1.104810 0.069907
v -0.014753 0.100512 0.053815
v -0.029299 0.098033 0.044950
v 0.063995 1.113243 -0.043775
v -0.042959 0.096517 0.031623
v 0.049881 1.120161 -0.057948
v -0.049357 0.095462 0.015415
v -0.030980 1.178717 -0.053543
v -0.051991 0.095351 -0.002044
v -0.044966 1.152545 -0.027919
v -0.049200 0.095876 -0.019020
v -0.002375 1.121782 0.052476
v -0.041974 0.096818 -0.035577
v 0.016502 1.111332 0.063719
v -0.030415 0.098185 -0.050342
v -0.001069 1.443536 -0.072670
v 0.027851 1.445787 -0.067596
v 0.051266 1.444047 -0.051913
v 0.064336 1.443598 -0.022438
v 0.066852 1.443064 -0.000518
v 0.069522 1.439069 0.025374
v 0.054364 1.422949 0.059174
v 0.029131 1.405425 0.076484
v 0.005873 1.388863 0.080157
v -0.016250 1.381831 0.078327
v -0.040828 1.388968 0.061864
v -0.056360 1.405901 0.035374
v -0.062008 1.424467 0.005651
v -0.061181 1.436423 -0.021257
v -0.048461 1.440645 -0.047789
v -0.029594 1.442332 -0.064307
v 0.001655 1.483972 -0.039064
v 0.014599 1.483985 -0.035171
v 0.023876 1.484536 -0.026151
v 0.036772 1.477256 -0.008785
v 0.041930 1.469976 0.002083
v 0.036107 1.468123 0.019487
v 0.026237 1.459797 0.037814
v 0.020001 1.441737 0.060499
v 0.011367 1.434016 0.068119
v -0.007025 1.426652 0.064328
v -0.029646 1.431771 0.065592
v -0.044840 1.453479 0.039544
v -0.051939 1.464891 0.016713
v -0.046308 1.481931 0.001442
v -0.029447 1.486271 -0.029211
v -0.022198 1.481731 -0.040926
v 0.006197 -0.083105 -0.029724
v 0.003313 -0.053775 -0.049061
v 0.014724 -0.082752 -0.029631
v 0.021308 -0.049245 -0.049219
v 0.020745 -0.082891 -0.026578
v 0.037508 -0.045706 -0.040190
v 0.030264 -0.079057 -0.019962
v 0.047970 -0.042238 -0.026201
v 0.040300 -0.067738 -0.007597
v 0.055376 -0.031235 -0.009436
v 0.033099 -0.069007 0.004879
v 0.053791 -0.045252 0.012712
v 0.027119 -0.072938 0.010317
v 0.038958 -0.052934 0.025975
v 0.018433 -0.076122 0.016101
v 0.023528 -0.050811 0.035144
v 0.006313 -0.085250 0.015324
v 0.009414 -0.067674 0.044182
v -0.001339 -0.088466 0.016080
v -0.007032 -0.073939 0.043283
v -0.004671 -0.089506 0.012781
v -0.020080 -0.072236 0.032979
v -0.013174 -0.090990 0.007247
v -0.032036 -0.072216 0.019752
v -0.015871 -0.090904 0.000212
v -0.037189 -0.069669 0.002607
v -0.013866 -0.091465 -0.011139
v -0.037852 -0.067309 -0.015719
v -0.009292 -0.091292 -0.019508
v -0.030439 -0.063991 -0.033580
v -0.002598 -0.086933 -0.026035
v -0.013466 -0.058530 -0.044884
v 0.087071 1.074740 0.063425
v 0.074514 1.021971 0.060090
v 0.095576 1.117690 0.007378
v 0.082129 1.212354 0.051443
v 0.087599 1.163104 0.071028
v 0.067186 1.127192 0.073007
v 0.118925 1.181902 0.081751
v 0.116519 1.171012 0.074104
v 0.108409 1.187842 0.080876
v 0.108625 1.174984 0.086275
vt 0.092190 0.113098
vt 0.163321 0.190772
vt 0.153914 0.201033
vt 0.084299 0.121931
vt 0.065809 0.139403
vt 0.129181 0.223424
vt 0.116509 0.234943
vt 0.055670 0.147145
vt 0.104102 0.245524
vt 0.047711 0.160260
vt 0.087573 0.258860
vt 0.026182 0.158291
vt 0.170885 0.020745
vt 0.263340 0.089849
vt 0.252081 0.102924
vt 0.159513 0.032761
vt 0.240559 0.114970
vt 0.155110 0.045760
vt 0.227497 0.128040
vt 0.142659 0.052584
vt 0.217673 0.136351
vt 0.135369 0.059969
vt 0.208005 0.145500
vt 0.129457 0.067635
vt 0.198818 0.154106
vt 0.122568 0.075896
vt 0.190056 0.162913
vt 0.115802 0.084539
vt 0.181457 0.171799
vt 0.108775 0.093738
vt 0.172454 0.181165
vt 0.100971 0.103212
vt 0.753517 0.665616
vt 0.760896 0.648867
vt 0.880410 0.799890
vt 0.867496 0.805334
vt 0.075906 0.131138
vt 0.142455 0.212492
vt 0.612044 0.783502
vt 0.600512 0.793969
vt 0.791926 0.905540
vt 0.805188 0.895220
vt 0.826487 0.921047
vt 0.812615 0.936833
vt 0.709370 0.757436
vt 0.713613 0.729274
vt 0.830984 0.875704
vt 0.816969 0.886686
vt 0.619292 0.771583
vt 0.633328 0.765747
vt 0.779531 0.916953
vt 0.767182 0.927838
vt 0.719969 0.706199
vt 0.733988 0.692482
vt 0.849079 0.840606
vt 0.840739 0.860870
vt 0.744332 0.680903
vt 0.857373 0.820688
vt 0.679391 0.761596
vt 0.755089 0.943308
vt 0.770498 0.633882
vt 0.897831 0.798805
vt 0.649094 0.754574
vt 0.746495 0.955563
vt 0.923985 0.932735
vt 0.933663 0.894190
vt 0.933827 0.911706
vt 0.932722 0.926075
vt 0.901754 0.819248
vt 0.890008 0.824875
vt 0.804099 0.944037
vt 0.797545 0.952341
vt 0.880861 0.837769
vt 0.782216 0.964400
vt 0.873437 0.863896
vt 0.771790 0.969948
vt 0.863252 0.880891
vt 0.733058 0.969080
vt 0.766646 0.984062
vt 0.859584 0.898933
vt 0.916399 0.798090
vt 0.937903 0.798085
vt 0.940001 0.824112
vt 0.926920 0.824904
vt 0.837933 0.918543
vt 0.910138 0.819592
vt 0.059187 0.101229
vt 0.066149 0.096345
vt 0.053329 0.104046
vt 0.044853 0.112711
vt 0.035097 0.129324
vt 0.021889 0.128940
vt 0.137030 0.023483
vt 0.142359 0.016982
vt 0.130726 0.031874
vt 0.116937 0.040948
vt 0.112996 0.048613
vt 0.109416 0.051342
vt 0.102909 0.059682
vt 0.097216 0.065131
vt 0.087020 0.072188
vt 0.078938 0.078241
vt 0.072551 0.087505
vt 0.077167 0.075014
vt 0.100527 0.057742
vt 0.742875 0.564805
vt 0.777114 0.589001
vt 0.798306 0.627647
vt 0.870180 0.618751
vt 0.857661 0.668613
vt 0.835037 0.631279
vt 0.862164 0.619219
vt 0.821697 0.580886
vt 0.844250 0.608077
vt 0.839293 0.604113
vt 0.587867 0.804632
vt 0.818801 0.568694
vt 0.842525 0.611726
vt 0.842233 0.611116
vt 0.842832 0.611218
vt 0.843149 0.611661
vt 0.844598 0.611645
vt 0.908464 0.941516
vt 0.935980 0.871133
vt 0.864468 0.926040
vt 0.878583 0.866984
vt 0.898640 0.943937
vt 0.932480 0.860882
vt 0.888191 0.942402
vt 0.917979 0.854710
vt 0.870739 0.935480
vt 0.900939 0.848463
vt 0.066148 0.073808
vt 0.098265 0.046961
vt 0.045336 0.042595
vt 0.045493 0.021602
vt 0.060587 0.017913
vt 0.069990 0.020115
vt 0.056122 0.069182
vt 0.098209 0.041800
vt 0.049914 0.062431
vt 0.091411 0.035970
vt 0.047890 0.055464
vt 0.081317 0.023141
vn -0.364600 -0.341400 -0.866300
vn -0.444400 -0.041700 -0.894800
vn -0.075200 -0.038900 -0.996400
vn -0.078900 -0.311200 -0.947000
vn 0.664000 -0.242300 -0.707400
vn 0.668400 -0.008600 -0.743800
vn 0.840400 -0.002100 -0.541900
vn 0.871800 -0.237100 -0.428600
vn 0.985600 -0.002400 -0.169000
vn 0.984600 -0.127200 -0.119700
vn 0.949500 -0.018300 0.313100
vn 0.899700 -0.300000 0.317000
vn 0.653100 -0.040200 0.756200
vn 0.636800 -0.417200 0.648400
vn 0.237000 -0.040300 0.970600
vn 0.470300 -0.290800 0.833200
vn -0.189000 -0.032300 0.981400
vn 0.280100 -0.468200 0.838000
vn -0.561300 -0.035400 0.826800
vn -0.267400 -0.560700 0.783600
vn -0.770500 -0.037900 0.636300
vn -0.629900 -0.483400 0.607900
vn -0.904900 -0.040200 0.423700
vn -0.797500 -0.463300 0.386500
vn -0.992600 -0.039600 0.114200
vn -0.906100 -0.418600 0.061200
vn -0.968300 -0.037300 -0.247000
vn -0.882400 -0.402000 -0.244400
vn -0.787200 -0.038700 -0.615400
vn -0.695100 -0.378100 -0.611400
vn -0.558100 -0.048200 0.828400
vn -0.262100 -0.028400 0.964600
vn -0.148100 0.110100 0.982800
vn -0.406700 0.032400 0.913000
vn 0.287900 -0.275200 -0.917200
vn 0.341600 -0.026500 -0.939500
vn 0.845100 0.014900 -0.534300
vn 0.972800 0.020300 -0.230500
vn 0.029700 0.309900 -0.950300
vn -0.391700 0.273200 -0.878600
vn -0.217300 0.903000 -0.370600
vn -0.066900 0.965100 -0.253100
vn -0.739200 -0.027500 -0.672900
vn -0.964600 -0.025000 -0.262600
vn -0.953000 0.183200 -0.241300
vn -0.758300 0.232800 -0.609000
vn 0.690400 -0.004300 -0.723400
vn 0.451200 -0.003800 -0.892400
vn 0.405500 0.360200 -0.840100
vn 0.705300 0.346400 -0.618500
vn -0.989300 -0.026600 0.143200
vn -0.887500 -0.045900 0.458400
vn -0.894900 0.030900 0.445100
vn -0.986400 0.081300 0.142300
vn -0.762300 -0.057300 0.644700
vn -0.678400 0.010300 0.734600
vn -0.365400 -0.012100 -0.930800
vn 0.857900 0.375300 -0.350700
vn -0.005200 -0.020400 0.999800
vn 0.241600 0.210000 0.947400
vn 0.052600 -0.007400 -0.998600
vn 0.900000 0.427100 -0.087100
vn 0.285500 0.954000 0.090700
vn 0.030600 0.848100 0.528900
vn 0.364400 0.863400 0.348800
vn 0.522900 0.837500 0.158700
vn -0.158400 0.576900 0.801300
vn -0.209500 0.588300 0.781000
vn 0.027100 0.968700 -0.246700
vn 0.128300 0.990300 -0.053300
vn -0.352800 0.509800 0.784600
vn -0.277200 0.688300 0.670300
vn -0.597000 0.655400 0.462600
vn 0.865400 0.437100 0.244800
vn -0.409800 0.872100 0.267200
vn 0.656700 0.360100 0.662600
vn -0.162500 0.986000 -0.035800
vn -0.035400 0.717000 0.696200
vn 0.336500 -0.801000 -0.495100
vn 0.135400 -0.817000 -0.560500
vn 0.543400 -0.788300 -0.288400
vn 0.662000 -0.737700 -0.132600
vn 0.824100 -0.566300 -0.013400
vn 0.699500 -0.681000 0.216400
vn 0.494200 -0.787800 0.367500
vn 0.535200 -0.760100 0.368400
vn 0.402500 -0.885600 0.231400
vn 0.066300 -0.958100 0.278500
vn 0.021900 -0.976800 0.213000
vn -0.210800 -0.955000 0.208500
vn -0.423800 -0.905200 0.030800
vn -0.384600 -0.914200 -0.127500
vn -0.121500 -0.934000 -0.335700
vn 0.060700 -0.860900 -0.505100
vn 0.678800 -0.071400 0.730800
vn 0.722400 -0.269400 0.636800
vn -0.115900 0.036200 0.992600
vn 0.999400 -0.029300 0.018100
vn 0.779600 0.105000 0.617400
vn -0.285900 0.803300 0.522300
vn 0.991800 0.021400 -0.125800
vn 0.638300 0.707200 0.303900
vn 0.793900 -0.304200 0.526400
vn -0.107700 0.055900 0.992600
vn -0.299000 0.935800 0.186600
usemtl None
s 1
f 95/1/1 31/2/2 2/3/3 65/4/4
f 69/5/5 6/6/6 8/7/7 71/8/8
f 71/8/8 8/7/7 10/9/9 73/10/10
f 73/10/10 10/9/9 12/11/11 75/12/12
f 75/13/12 12/14/11 14/15/13 77/16/14
f 77/16/14 14/15/13 16/17/15 79/18/16
f 79/18/16 16/17/15 18/19/17 81/20/18
f 81/20/18 18/19/17 19/21/19 83/22/20
f 83/22/20 19/21/19 21/23/21 85/24/22
f 85/24/22 21/23/21 23/25/23 87/26/24
f 87/26/24 23/25/23 25/27/25 89/28/26
f 89/28/26 25/27/25 27/29/27 91/30/28
f 91/30/28 27/29/27 29/31/29 93/32/30
f 93/32/30 29/31/29 31/2/2 95/1/1
f 28/33/31 30/34/32 40/35/33 41/36/34
f 67/37/35 4/38/36 6/6/6 69/5/5
f 10/9/9 8/7/7 3/39/37 11/40/38
f 65/4/4 2/3/3 4/38/36 67/37/35
f 32/41/39 47/42/40 63/43/41 48/44/42
f 24/45/43 26/46/44 45/47/45 46/48/46
f 20/49/47 22/50/48 33/51/49 34/52/50
f 13/53/51 15/54/52 43/55/53 44/56/54
f 7/57/55 28/33/31 41/36/34 42/58/56
f 5/59/57 24/45/43 46/48/46 47/42/40
f 3/39/37 20/49/47 34/52/50 35/60/58
f 30/34/32 17/61/59 39/62/60 40/35/33
f 22/50/48 1/63/61 32/41/39 33/51/49
f 26/46/44 13/53/51 44/56/54 45/47/45
f 15/54/52 7/57/55 42/58/56 43/55/53
f 1/63/61 5/59/57 47/42/40 32/41/39
f 11/40/38 3/39/37 35/60/58 36/64/62
f 51/65/63 54/66/64 53/67/65 52/68/66
f 41/36/34 40/35/33 56/69/67 57/70/68
f 34/52/50 33/51/49 49/71/69 50/72/70
f 42/58/56 41/36/34 57/70/68 58/73/71
f 35/60/58 34/52/50 50/72/70 51/74/63
f 43/55/53 42/58/56 58/73/71 59/75/72
f 36/64/62 35/60/58 51/74/63 52/76/66
f 44/56/54 43/55/53 59/75/72 60/77/73
f 37/78/74 36/64/62 52/76/66 53/79/65
f 45/47/45 44/56/54 60/77/73 61/80/75
f 38/81/76 37/82/74 53/83/65 54/84/64
f 46/48/46 45/47/45 61/80/75 62/85/77
f 39/62/60 38/81/76 54/84/64 55/86/78
f 47/42/40 46/48/46 62/85/77 63/43/41
f 40/35/33 39/62/60 55/86/78 56/69/67
f 33/51/49 32/41/39 48/44/42 49/71/69
f 65/4/4 67/37/35 66/87/79 64/88/80
f 67/37/35 69/5/5 68/89/81 66/87/79
f 69/5/5 71/8/8 70/90/82 68/89/81
f 71/8/8 73/10/10 72/91/83 70/90/82
f 73/10/10 75/12/12 74/92/84 72/91/83
f 75/13/12 77/16/14 76/93/85 74/94/84
f 77/16/14 79/18/16 78/95/86 76/93/85
f 79/18/16 81/20/18 80/96/87 78/95/86
f 81/20/18 83/22/20 82/97/88 80/96/87
f 83/22/20 85/24/22 84/98/89 82/97/88
f 85/24/22 87/26/24 86/99/90 84/98/89
f 87/26/24 89/28/26 88/100/91 86/99/90
f 89/28/26 91/30/28 90/101/92 88/100/91
f 91/30/28 93/32/30 92/102/93 90/101/92
f 93/32/30 95/1/1 94/103/94 92/102/93
f 95/1/1 65/4/4 64/88/80 94/103/94
f 92/104/93 86/105/90 88/100/91 90/101/92
f 2/3/3 31/2/2 5/59/57 1/63/61
f 23/25/23 21/23/21 7/57/55 15/54/52
f 27/29/27 25/27/25 13/53/51 26/46/44
f 4/38/36 2/3/3 1/63/61 22/50/48
f 18/19/17 16/17/15 17/61/59 30/34/32
f 8/7/7 6/6/6 20/49/47 3/39/37
f 31/2/2 29/31/29 24/45/43 5/59/57
f 21/23/21 19/21/19 28/33/31 7/57/55
f 17/61/59 97/106/95 96/107/96 101/108/97
f 25/27/25 23/25/23 15/54/52 13/53/51
f 98/109/98 99/110/99 100/111/100 9/112/101
f 6/6/6 4/38/36 22/50/48 20/49/47
f 29/31/29 27/29/27 26/46/44 24/45/43
f 19/21/19 18/19/17 30/34/32 28/33/31
f 99/110/99 17/61/59 101/108/97 100/111/100
f 96/107/96 9/113/101 102/114/102 103/115/103
f 98/116/98 11/40/38 36/64/62 37/78/74
f 14/15/13 12/14/11 98/117/98 97/106/95
f 17/61/59 99/110/99 38/81/76 39/62/60
f 12/11/11 10/9/9 11/40/38 98/116/98
f 99/110/99 98/109/98 37/82/74 38/81/76
f 97/106/95 98/117/98 9/113/101 96/107/96
f 16/17/15 14/15/13 97/106/95 17/61/59
f 105/118/104 103/119/103 102/120/102 104/121/105
f 9/112/101 100/111/100 104/121/105 102/122/102
f 100/111/100 101/108/97 105/118/104 104/121/105
f 101/108/97 96/107/96 103/115/103 105/118/104
f 50/123/70 55/124/78 54/66/64 51/65/63
f 62/125/77 61/80/75 60/77/73 59/126/72
f 50/123/70 49/127/69 56/128/67 55/124/78
f 49/127/69 48/129/42 57/130/68 56/128/67
f 48/129/42 63/131/41 58/132/71 57/130/68
f 63/131/41 62/125/77 59/126/72 58/132/71
f 94/133/94 84/134/89 86/105/90 92/104/93
f 70/135/82 72/136/83 74/137/84 76/138/85
f 94/133/94 64/139/80 82/140/88 84/134/89
f 64/139/80 66/141/79 80/142/87 82/140/88
f 66/141/79 68/143/81 78/144/86 80/142/87
f 68/143/81 70/135/82 76/138/85 78/144/86
